<svg xmlns="http://www.w3.org/2000/svg" xmlns:xlink="http://www.w3.org/1999/xlink" preserveAspectRatio="xMidYMid" width="32" height="32" viewBox="0 0 32 32">
  <defs>
    <style>
      .cls-1 {
        fill: #fff;
        fill-rule: evenodd;
      }
    </style>
  </defs>
  <path d="M28.000,31.998 L4.000,31.998 C1.791,31.998 -0.000,30.088 -0.000,27.731 L-0.000,23.466 L-0.000,21.332 C-0.000,20.154 0.895,19.198 2.000,19.198 C3.104,19.198 4.000,20.154 4.000,21.332 L4.000,23.466 L4.000,25.598 C4.000,26.776 4.895,27.731 6.000,27.731 L26.000,27.731 C27.104,27.731 28.000,26.776 28.000,25.598 L28.000,23.466 L28.000,21.332 C28.000,20.154 28.895,19.198 30.000,19.198 C31.105,19.198 32.000,20.154 32.000,21.332 L32.000,23.466 L32.000,27.731 C32.000,30.088 30.209,31.998 28.000,31.998 ZM17.704,22.434 C17.353,23.050 16.725,23.466 16.000,23.466 C15.995,23.466 15.990,23.464 15.985,23.464 C15.956,23.465 15.927,23.473 15.898,23.473 C15.366,23.473 14.857,23.249 14.481,22.848 L8.548,16.414 C7.765,15.581 7.765,14.231 8.548,13.398 C9.331,12.565 10.599,12.565 11.381,13.398 L14.000,16.253 L14.000,2.131 C14.000,0.953 14.895,-0.001 16.000,-0.001 C17.104,-0.001 18.000,0.953 18.000,2.131 L18.000,16.093 L20.556,13.380 C21.338,12.547 22.607,12.547 23.389,13.380 C24.172,14.214 24.172,15.564 23.389,16.397 L17.704,22.434 Z" class="cls-1"/>
</svg>
