<svg xmlns="http://www.w3.org/2000/svg" xmlns:xlink="http://www.w3.org/1999/xlink" preserveAspectRatio="xMidYMid" width="20" height="95" viewBox="0 0 20 95">
  <defs>
    <style>
      .cls-1 {
        fill: #fff;
        fill-rule: evenodd;
      }
    </style>
  </defs>
  <path d="M10.000,70.000 C4.477,70.000 -0.000,65.523 -0.000,60.000 C-0.000,54.477 4.477,50.000 10.000,50.000 C15.523,50.000 20.000,54.477 20.000,60.000 C20.000,65.523 15.523,70.000 10.000,70.000 ZM11.990,67.967 C14.388,67.364 16.362,65.701 17.396,63.499 C16.809,62.604 15.578,61.642 14.545,61.556 C13.220,61.444 11.364,62.926 11.364,64.222 C11.364,65.385 11.249,67.136 11.990,67.967 ZM10.000,62.444 C11.004,62.444 11.818,61.649 11.818,60.667 C11.818,59.685 11.004,58.889 10.000,58.889 C8.996,58.889 8.182,59.685 8.182,60.667 C8.182,61.649 8.996,62.444 10.000,62.444 ZM7.964,67.955 C8.233,67.543 8.636,66.543 8.636,64.222 C8.636,61.852 5.909,61.556 5.909,61.556 C5.909,61.556 3.769,61.412 2.605,63.501 C3.633,65.688 5.587,67.342 7.964,67.955 ZM10.000,51.778 C5.696,51.778 2.177,55.119 1.850,59.360 C2.060,59.592 2.346,59.778 2.727,59.778 C3.750,59.778 6.780,57.556 10.000,57.556 C13.220,57.556 15.833,59.778 17.273,59.778 C17.680,59.778 17.957,59.666 18.157,59.513 C17.905,55.200 14.355,51.778 10.000,51.778 Z" class="cls-1"/>
  <path d="M15.428,19.999 L14.143,19.999 L14.143,19.999 L3.857,19.999 L3.857,19.999 L2.571,19.999 C1.151,19.999 -0.000,18.879 -0.000,17.499 L-0.000,3.749 C-0.000,2.368 1.151,1.249 2.571,1.249 L3.857,1.249 L5.143,1.249 C5.143,1.092 5.180,0.947 5.234,0.809 C5.250,0.769 5.271,0.732 5.291,0.694 C5.341,0.597 5.401,0.510 5.474,0.430 C5.502,0.398 5.528,0.367 5.560,0.338 C5.669,0.240 5.789,0.154 5.928,0.097 C6.082,0.033 6.251,-0.002 6.428,-0.002 L7.714,-0.002 L10.285,-0.002 L11.571,-0.002 C11.749,-0.002 11.918,0.033 12.072,0.097 C12.210,0.154 12.330,0.240 12.439,0.338 C12.471,0.367 12.497,0.398 12.526,0.430 C12.599,0.510 12.659,0.597 12.709,0.694 C12.729,0.732 12.750,0.769 12.766,0.809 C12.819,0.947 12.857,1.092 12.857,1.249 L14.143,1.249 L15.428,1.249 C16.848,1.249 18.000,2.368 18.000,3.749 L18.000,17.499 C18.000,18.879 16.848,19.999 15.428,19.999 ZM15.428,14.999 L15.428,9.998 L15.428,7.499 L15.428,4.998 C15.428,4.308 14.853,3.749 14.143,3.749 L12.857,3.749 C12.857,4.439 12.281,4.998 11.571,4.998 L6.428,4.998 C5.718,4.998 5.143,4.439 5.143,3.749 L3.857,3.749 C3.147,3.749 2.571,4.308 2.571,4.998 L2.571,7.499 L2.571,9.998 L2.571,14.999 L2.571,16.248 C2.571,16.939 3.147,17.499 3.857,17.499 L14.143,17.499 C14.853,17.499 15.428,16.939 15.428,16.248 L15.428,14.999 ZM11.571,14.999 C10.861,14.999 10.285,14.439 10.285,13.748 C10.285,13.058 10.861,12.498 11.571,12.498 C12.281,12.498 12.857,13.058 12.857,13.748 C12.857,14.439 12.281,14.999 11.571,14.999 ZM11.571,9.998 L6.428,9.998 C5.718,9.998 5.143,9.439 5.143,8.748 C5.143,8.058 5.718,7.499 6.428,7.499 L11.571,7.499 C12.281,7.499 12.857,8.058 12.857,8.748 C12.857,9.439 12.281,9.998 11.571,9.998 ZM6.428,12.498 L7.714,12.498 C8.424,12.498 9.000,13.058 9.000,13.748 C9.000,14.439 8.424,14.999 7.714,14.999 L6.428,14.999 C5.718,14.999 5.143,14.439 5.143,13.748 C5.143,13.058 5.718,12.498 6.428,12.498 Z" class="cls-1"/>
  <path d="M8.000,94.999 C5.288,94.999 -0.000,88.200 -0.000,82.406 C-0.000,78.322 3.589,74.999 8.000,74.999 C12.411,74.999 16.000,78.322 16.000,82.406 C16.000,88.200 10.712,94.999 8.000,94.999 ZM8.000,76.480 C4.471,76.480 1.600,79.138 1.600,82.406 C1.600,87.869 6.647,93.517 8.000,93.517 C9.353,93.517 14.400,87.869 14.400,82.406 C14.400,79.138 11.529,76.480 8.000,76.480 ZM8.000,86.480 C5.574,86.480 3.600,84.653 3.600,82.406 C3.600,80.160 5.574,78.331 8.000,78.331 C10.426,78.331 12.400,80.160 12.400,82.406 C12.400,84.653 10.426,86.480 8.000,86.480 ZM8.000,79.813 C6.456,79.813 5.200,80.976 5.200,82.406 C5.200,83.835 6.456,84.999 8.000,84.999 C9.544,84.999 10.800,83.835 10.800,82.406 C10.800,80.976 9.544,79.813 8.000,79.813 Z" class="cls-1"/>
  <path d="M10.000,45.000 C4.486,45.000 -0.000,40.514 -0.000,34.999 C-0.000,29.485 4.486,25.000 10.000,25.000 C15.514,25.000 20.000,29.485 20.000,34.999 C20.000,40.514 15.514,45.000 10.000,45.000 ZM10.000,26.665 C5.404,26.665 1.665,30.403 1.665,34.999 C1.665,39.595 5.404,43.334 10.000,43.334 C14.596,43.334 18.335,39.595 18.335,34.999 C18.335,30.403 14.596,26.665 10.000,26.665 ZM12.792,34.897 C13.196,35.379 13.396,35.991 13.396,36.742 C13.396,37.579 13.143,38.285 12.637,38.861 C12.131,39.436 11.424,39.787 10.522,39.918 L10.522,41.216 L9.514,41.216 L9.514,39.950 C8.714,39.857 8.065,39.559 7.563,39.056 C7.061,38.554 6.743,37.848 6.604,36.938 L8.416,36.742 C8.490,37.114 8.628,37.432 8.833,37.701 C9.037,37.971 9.265,38.167 9.514,38.285 L9.514,35.375 C8.608,35.118 7.943,34.726 7.518,34.199 C7.094,33.673 6.882,33.036 6.882,32.285 C6.882,31.526 7.122,30.885 7.600,30.371 C8.082,29.852 8.718,29.554 9.514,29.477 L9.514,28.792 L10.522,28.792 L10.522,29.477 C11.257,29.567 11.841,29.816 12.277,30.232 C12.710,30.644 12.992,31.199 13.110,31.893 L11.355,32.122 C11.249,31.575 10.971,31.207 10.522,31.012 L10.522,33.726 C11.633,34.028 12.388,34.416 12.792,34.897 ZM10.522,38.379 C11.873,38.097 12.000,35.954 10.522,35.669 L10.522,38.379 ZM9.514,30.987 C8.526,30.987 8.041,32.910 9.514,33.391 L9.514,30.987 Z" class="cls-1"/>
</svg>
