<svg xmlns="http://www.w3.org/2000/svg" xmlns:xlink="http://www.w3.org/1999/xlink" preserveAspectRatio="xMidYMid" width="16" height="36" viewBox="0 0 16 36">
  <defs>
    <style>
      .cls-1 {
        fill: #ed1c24;
      }

      .cls-1, .cls-2 {
        fill-rule: evenodd;
      }

      .cls-2 {
        fill: #404040;
      }
    </style>
  </defs>
  <path d="M8.716,6.202 L8.716,3.081 L14.933,3.081 C15.521,3.081 16.000,3.560 16.000,4.149 L16.000,6.202 L8.716,6.202 ZM8.716,2.027 C8.716,1.613 9.230,1.108 10.092,0.675 C11.008,0.214 11.986,-0.001 12.357,-0.001 C12.563,-0.001 12.731,0.168 12.731,0.374 L12.731,2.084 L8.715,2.035 C8.715,2.032 8.716,2.030 8.716,2.027 ZM3.268,0.374 C3.268,0.168 3.436,-0.001 3.642,-0.001 C4.013,-0.001 4.990,0.214 5.907,0.675 C6.769,1.108 7.284,1.613 7.284,2.027 C7.284,2.030 7.284,2.033 7.284,2.036 L3.268,2.084 L3.268,0.374 ZM7.284,6.202 L-0.001,6.202 L-0.001,4.149 C-0.001,3.560 0.478,3.081 1.066,3.081 L7.284,3.081 L7.284,6.202 ZM7.284,16.000 L1.611,16.000 C1.023,16.000 0.544,15.520 0.544,14.930 L0.544,14.930 L0.544,7.633 L7.284,7.633 L7.284,16.000 ZM15.455,14.930 C15.455,15.520 14.976,16.000 14.388,16.000 L8.716,16.000 L8.716,7.633 L15.455,7.633 L15.455,14.930 Z" class="cls-1"/>
  <path d="M8.716,26.202 L8.716,23.081 L14.933,23.081 C15.521,23.081 16.000,23.560 16.000,24.149 L16.000,26.202 L8.716,26.202 ZM8.716,22.027 C8.716,21.613 9.230,21.108 10.092,20.675 C11.008,20.214 11.986,19.999 12.357,19.999 C12.563,19.999 12.731,20.168 12.731,20.374 L12.731,22.084 L8.715,22.035 C8.715,22.032 8.716,22.030 8.716,22.027 ZM3.268,20.374 C3.268,20.168 3.436,19.999 3.642,19.999 C4.013,19.999 4.990,20.214 5.907,20.675 C6.769,21.108 7.284,21.613 7.284,22.027 C7.284,22.030 7.284,22.033 7.284,22.036 L3.268,22.084 L3.268,20.374 ZM7.284,26.202 L-0.001,26.202 L-0.001,24.149 C-0.001,23.560 0.478,23.081 1.066,23.081 L7.284,23.081 L7.284,26.202 ZM7.284,36.000 L1.611,36.000 C1.023,36.000 0.544,35.520 0.544,34.930 L0.544,34.930 L0.544,27.633 L7.284,27.633 L7.284,36.000 ZM15.455,34.930 C15.455,35.520 14.976,36.000 14.388,36.000 L8.716,36.000 L8.716,27.633 L15.455,27.633 L15.455,34.930 Z" class="cls-2"/>
</svg>
