<svg xmlns="http://www.w3.org/2000/svg" xmlns:xlink="http://www.w3.org/1999/xlink" preserveAspectRatio="xMidYMid" width="24" height="54" viewBox="0 0 24 54">
  <defs>
    <style>
      .cls-1 {
        fill: #ed1c24;
      }

      .cls-1, .cls-2 {
        fill-rule: evenodd;
      }

      .cls-2 {
        fill: #404040;
      }
    </style>
  </defs>
  <path d="M23.603,7.061 L12.361,13.134 C12.250,13.194 12.128,13.224 12.006,13.224 C11.882,13.224 11.759,13.194 11.647,13.133 L0.523,7.060 C0.279,6.926 0.128,6.668 0.132,6.388 C0.137,6.109 0.296,5.855 0.545,5.729 L11.785,0.066 C11.999,-0.041 12.249,-0.040 12.462,0.068 L23.587,5.731 C23.835,5.857 23.993,6.112 23.996,6.392 C24.000,6.671 23.848,6.929 23.603,7.061 ZM12.121,1.579 L2.497,6.427 L12.008,11.619 L21.631,6.421 L12.121,1.579 ZM2.765,10.065 L4.366,10.939 L2.368,11.946 L11.879,17.137 L21.502,11.939 L19.629,10.986 L21.234,10.118 L23.458,11.249 C23.706,11.376 23.864,11.630 23.867,11.911 C23.871,12.190 23.719,12.448 23.474,12.580 L12.233,18.653 C12.121,18.713 11.999,18.743 11.877,18.743 C11.753,18.743 11.630,18.713 11.519,18.651 L0.394,12.579 C0.150,12.445 -0.001,12.187 0.004,11.907 C0.008,11.628 0.168,11.374 0.416,11.248 L2.765,10.065 ZM0.416,16.506 L2.625,15.487 L4.226,16.361 L2.368,17.204 L11.879,22.395 L21.502,17.197 L19.746,16.337 L21.351,15.469 L23.458,16.507 C23.706,16.634 23.864,16.888 23.867,17.169 C23.871,17.448 23.719,17.706 23.474,17.838 L12.233,23.911 C12.121,23.971 11.999,24.001 11.877,24.001 C11.753,24.001 11.630,23.970 11.519,23.909 L0.394,17.837 C0.150,17.703 -0.001,17.445 0.004,17.165 C0.008,16.886 0.168,16.632 0.416,16.506 Z" class="cls-1"/>
  <path d="M23.603,37.061 L12.361,43.134 C12.250,43.194 12.128,43.224 12.006,43.224 C11.882,43.224 11.759,43.194 11.647,43.133 L0.523,37.060 C0.279,36.926 0.128,36.668 0.132,36.388 C0.137,36.109 0.296,35.855 0.545,35.729 L11.785,30.066 C11.999,29.959 12.249,29.960 12.462,30.068 L23.587,35.731 C23.835,35.857 23.993,36.112 23.996,36.392 C24.000,36.671 23.848,36.929 23.603,37.061 ZM12.121,31.579 L2.497,36.427 L12.008,41.619 L21.631,36.421 L12.121,31.579 ZM2.765,40.065 L4.366,40.939 L2.368,41.946 L11.879,47.137 L21.502,41.939 L19.629,40.986 L21.234,40.118 L23.458,41.249 C23.706,41.376 23.864,41.630 23.867,41.911 C23.871,42.190 23.719,42.448 23.474,42.580 L12.233,48.653 C12.121,48.713 11.999,48.743 11.877,48.743 C11.753,48.743 11.630,48.713 11.519,48.651 L0.394,42.579 C0.150,42.445 -0.001,42.187 0.004,41.907 C0.008,41.628 0.168,41.374 0.416,41.248 L2.765,40.065 ZM0.416,46.506 L2.625,45.487 L4.226,46.361 L2.368,47.204 L11.879,52.395 L21.502,47.197 L19.746,46.337 L21.351,45.469 L23.458,46.507 C23.706,46.634 23.864,46.888 23.867,47.169 C23.871,47.448 23.719,47.706 23.474,47.838 L12.233,53.911 C12.121,53.971 11.999,54.001 11.877,54.001 C11.753,54.001 11.630,53.970 11.519,53.909 L0.394,47.837 C0.150,47.703 -0.001,47.445 0.004,47.165 C0.008,46.886 0.168,46.632 0.416,46.506 Z" class="cls-2"/>
</svg>
