<?xml version="1.0" encoding="utf-8"?>
<!-- Generator: Adobe Illustrator 18.1.1, SVG Export Plug-In . SVG Version: 6.00 Build 0)  -->
<svg version="1.1" id="Layer_1" xmlns="http://www.w3.org/2000/svg" xmlns:xlink="http://www.w3.org/1999/xlink" x="0px" y="0px"
	 viewBox="0 0 50 23" enable-background="new 0 0 50 23" xml:space="preserve">
<path fill="#FFFFFF" d="M48.699,0H20.829c-0.881,0-1.743,0.714-1.924,1.596l-3.961,19.268c-0.181,0.881,0.387,1.596,1.268,1.596
	h27.87c0.881,0,1.743-0.714,1.924-1.596l3.961-19.268C50.148,0.714,49.58,0,48.699,0 M45.365,6.448l-12.368,5.965
	c-0.534,0.258-1.141,0.258-1.569,0l-9.916-5.965c-0.719-0.432-0.817-1.441-0.218-2.249c0.401-0.541,1.032-0.878,1.647-0.878
	c0.271,0,0.528,0.068,0.743,0.197L32.9,9.063l11.498-5.545c0.267-0.129,0.551-0.197,0.824-0.197c0.615,0,1.107,0.337,1.286,0.877
	C46.774,5.007,46.262,6.016,45.365,6.448"/>
<path fill="#FFFFFF" d="M4.498,4.208h12.008c0.636,0,1.151-0.515,1.151-1.15c0-0.636-0.515-1.151-1.151-1.151H4.498
	c-0.635,0-1.151,0.515-1.151,1.151C3.347,3.692,3.863,4.208,4.498,4.208"/>
<path fill="#FFFFFF" d="M13.285,12.375H1.277c-0.636,0-1.151,0.515-1.151,1.15c0,0.636,0.515,1.151,1.151,1.151h12.008
	c0.635,0,1.15-0.515,1.15-1.151C14.435,12.89,13.92,12.375,13.285,12.375"/>
<path fill="#FFFFFF" d="M16.045,8.224c0-0.635-0.515-1.15-1.15-1.15H7.719c-0.635,0-1.15,0.515-1.15,1.15
	c0,0.635,0.515,1.15,1.15,1.15h7.177C15.531,9.375,16.045,8.86,16.045,8.224"/>
<path fill="#FFFFFF" d="M11.674,17.543H7.839c-0.636,0-1.151,0.515-1.151,1.151c0,0.635,0.515,1.15,1.151,1.15h3.834
	c0.636,0,1.151-0.515,1.151-1.15C12.824,18.058,12.31,17.543,11.674,17.543"/>
</svg>
