<svg xmlns="http://www.w3.org/2000/svg" xmlns:xlink="http://www.w3.org/1999/xlink" preserveAspectRatio="xMidYMid" width="24" height="24" viewBox="0 0 24 24">
  <defs>
    <style>
      .cls-1 {
        fill: #ed1c24;
      }

      .cls-1, .cls-2 {
        fill-rule: evenodd;
      }

      .cls-2 {
        fill: gray;
      }
    </style>
  </defs>
  <path d="M22.509,-17.999 L22.509,-7.595 C22.509,-6.713 21.838,-5.997 21.009,-5.997 L3.017,-5.997 C2.188,-5.997 1.517,-6.713 1.517,-7.595 L1.517,-17.999 L0.003,-17.999 L0.003,-22.783 C0.003,-23.665 0.675,-24.381 1.503,-24.381 L4.121,-24.381 C3.441,-25.078 2.995,-25.987 2.995,-27.115 C2.995,-28.499 3.742,-30.003 5.836,-30.003 C8.593,-30.003 10.966,-26.876 12.048,-25.123 C13.130,-26.876 15.433,-30.003 18.189,-30.003 C20.283,-30.003 21.030,-28.499 21.030,-27.115 C21.030,-25.987 20.596,-25.078 19.929,-24.381 L22.503,-24.381 C23.332,-24.381 24.003,-23.665 24.003,-22.783 L24.003,-17.999 L22.509,-17.999 ZM21.009,-17.999 L12.753,-17.999 L12.753,-7.595 L21.009,-7.595 L21.009,-17.999 ZM5.836,-28.405 C4.909,-28.405 4.495,-28.015 4.495,-27.140 C4.495,-25.364 6.425,-24.382 8.174,-24.382 L10.714,-24.382 C9.649,-26.068 7.702,-28.405 5.836,-28.405 ZM11.253,-22.783 L1.503,-22.783 L1.503,-19.597 L11.253,-19.597 L11.253,-22.783 ZM3.017,-17.999 L3.017,-7.595 L11.253,-7.595 L11.253,-17.999 L3.017,-17.999 ZM18.189,-28.405 C16.323,-28.405 14.448,-26.068 13.382,-24.382 L15.921,-24.382 C17.670,-24.382 19.530,-25.339 19.530,-27.115 C19.530,-27.990 19.116,-28.405 18.189,-28.405 ZM22.503,-22.783 L12.753,-22.783 L12.753,-19.597 L22.503,-19.597 L22.503,-22.783 Z" class="cls-1"/>
  <path d="M22.506,12.001 L22.506,22.404 C22.506,23.287 21.834,24.003 21.006,24.003 L3.016,24.003 C2.188,24.003 1.516,23.287 1.516,22.404 L1.516,12.001 L0.003,12.001 L0.003,7.217 C0.003,6.334 0.675,5.619 1.503,5.619 L4.120,5.619 C3.440,4.922 2.995,4.013 2.995,2.885 C2.995,1.501 3.741,-0.003 5.836,-0.003 C8.591,-0.003 10.964,3.124 12.046,4.877 C13.128,3.124 15.430,-0.003 18.186,-0.003 C20.280,-0.003 21.027,1.501 21.027,2.885 C21.027,4.013 20.593,4.922 19.926,5.619 L22.500,5.619 C23.328,5.619 24.000,6.334 24.000,7.217 L24.000,12.001 L22.506,12.001 ZM21.006,12.001 L12.751,12.001 L12.751,22.404 L21.006,22.404 L21.006,12.001 ZM5.836,1.595 C4.908,1.595 4.495,1.985 4.495,2.860 C4.495,4.636 6.424,5.618 8.173,5.618 L10.713,5.618 C9.647,3.932 7.701,1.595 5.836,1.595 ZM11.252,7.217 L1.503,7.217 L1.503,10.403 L11.252,10.403 L11.252,7.217 ZM3.016,12.001 L3.016,22.404 L11.252,22.404 L11.252,12.001 L3.016,12.001 ZM18.186,1.595 C16.321,1.595 14.445,3.932 13.380,5.618 L15.919,5.618 C17.668,5.618 19.527,4.661 19.527,2.885 C19.527,2.010 19.113,1.595 18.186,1.595 ZM22.500,7.217 L12.751,7.217 L12.751,10.403 L22.500,10.403 L22.500,7.217 Z" class="cls-2"/>
</svg>
