<svg xmlns="http://www.w3.org/2000/svg" preserveAspectRatio="xMidYMid" width="24" height="54" viewBox="0 0 24 54"><defs><style>.cls-1 { fill: #ed1c24; } .cls-1, .cls-2 { fill-rule: evenodd; } .cls-2 { fill: gray; }</style></defs><path d="M22.509 12.001v10.404c0 .882-.671 1.598-1.5 1.598H3.017c-.829 0-1.5-.716-1.5-1.598V12.001H.003V7.217c0-.882.672-1.598 1.5-1.598h2.618c-.68-.697-1.126-1.606-1.126-2.734 0-1.384.747-2.888 2.841-2.888 2.757 0 5.13 3.127 6.212 4.88 1.082-1.753 3.385-4.88 6.141-4.88 2.094 0 2.841 1.504 2.841 2.888 0 1.128-.434 2.037-1.101 2.734h2.574c.829 0 1.5.716 1.5 1.598v4.784h-1.494zm-1.5 0h-8.256v10.404h8.256V12.001zM5.836 1.595c-.927 0-1.341.39-1.341 1.265 0 1.776 1.93 2.758 3.679 2.758h2.54C9.649 3.932 7.702 1.595 5.836 1.595zm5.417 5.622h-9.75v3.186h9.75V7.217zm-8.236 4.784v10.404h8.236V12.001H3.017zM18.189 1.595c-1.866 0-3.741 2.337-4.807 4.023h2.539c1.749 0 3.609-.957 3.609-2.733 0-.875-.414-1.29-1.341-1.29zm4.314 5.622h-9.75v3.186h9.75V7.217z" class="cls-1"/><path d="M22.506 42.001v10.403c0 .883-.672 1.599-1.5 1.599H3.016c-.828 0-1.5-.716-1.5-1.599V42.001H.003v-4.784c0-.883.672-1.598 1.5-1.598H4.12c-.68-.697-1.125-1.606-1.125-2.734 0-1.384.746-2.888 2.841-2.888 2.755 0 5.128 3.127 6.21 4.88 1.082-1.753 3.384-4.88 6.14-4.88 2.094 0 2.841 1.504 2.841 2.888 0 1.128-.434 2.037-1.101 2.734H22.5c.828 0 1.5.715 1.5 1.598v4.784h-1.494zm-1.5 0h-8.255v10.403h8.255V42.001zM5.836 31.595c-.928 0-1.341.39-1.341 1.265 0 1.776 1.929 2.758 3.678 2.758h2.54c-1.066-1.686-3.012-4.023-4.877-4.023zm5.416 5.622H1.503v3.186h9.749v-3.186zm-8.236 4.784v10.403h8.236V42.001H3.016zm15.17-10.406c-1.865 0-3.741 2.337-4.806 4.023h2.539c1.749 0 3.608-.957 3.608-2.733 0-.875-.414-1.29-1.341-1.29zm4.314 5.622h-9.749v3.186H22.5v-3.186z" class="cls-2"/></svg>