<svg xmlns="http://www.w3.org/2000/svg" xmlns:xlink="http://www.w3.org/1999/xlink" preserveAspectRatio="xMidYMid" width="24" height="54" viewBox="0 0 24 54">
  <defs>
    <style>
      .cls-1 {
        fill: #ed1c24;
      }

      .cls-1, .cls-2 {
        fill-rule: evenodd;
      }

      .cls-2 {
        fill: #fff;
      }
    </style>
  </defs>
  <path d="M23.764,13.090 C23.620,13.230 23.433,13.299 23.246,13.300 C23.050,13.300 22.854,13.222 22.707,13.068 L21.703,12.012 L21.703,23.250 C21.703,23.665 21.368,24.000 20.955,24.000 L15.735,24.000 C15.322,24.000 14.987,23.665 14.987,23.250 L14.987,15.752 L9.030,15.752 L9.007,23.252 C9.005,23.666 8.671,24.000 8.259,24.000 L3.036,24.000 C2.624,24.000 2.289,23.665 2.289,23.250 L2.289,12.017 L1.284,13.068 C0.997,13.369 0.525,13.377 0.227,13.090 C-0.071,12.802 -0.081,12.328 0.205,12.029 L11.485,0.224 C11.626,0.076 11.821,-0.007 12.025,-0.007 C12.228,-0.007 12.423,0.076 12.564,0.224 L23.786,12.030 C24.071,12.328 24.062,12.803 23.764,13.090 Z" class="cls-1"/>
  <path d="M23.764,43.090 C23.620,43.230 23.433,43.299 23.246,43.300 C23.050,43.300 22.854,43.222 22.707,43.068 L21.703,42.012 L21.703,53.250 C21.703,53.665 21.368,54.000 20.955,54.000 L15.735,54.000 C15.322,54.000 14.987,53.665 14.987,53.250 L14.987,45.752 L9.030,45.752 L9.007,53.252 C9.005,53.666 8.671,54.000 8.259,54.000 L3.036,54.000 C2.624,54.000 2.289,53.665 2.289,53.250 L2.289,42.017 L1.284,43.068 C0.997,43.369 0.525,43.377 0.227,43.090 C-0.071,42.802 -0.081,42.328 0.205,42.029 L11.485,30.224 C11.626,30.076 11.821,29.993 12.025,29.993 C12.228,29.993 12.423,30.076 12.564,30.224 L23.786,42.030 C24.071,42.328 24.062,42.803 23.764,43.090 Z" class="cls-2"/>
</svg>
