<svg xmlns="http://www.w3.org/2000/svg" preserveAspectRatio="xMidYMid" width="24" height="54" viewBox="0 0 24 54"><defs><style>.cls-1 { fill: #7f7f7f; } .cls-1, .cls-2 { fill-rule: evenodd; } .cls-2 { fill: #ed1c24; }</style></defs><path d="M12 54C5.373 54 0 48.627 0 42s5.373-12 12-12 12 5.373 12 12-5.373 12-12 12zm2.388-2.44c2.878-.724 5.246-2.718 6.487-5.362-.704-1.073-2.181-2.227-3.42-2.331-1.591-.134-3.819 1.644-3.819 3.2 0 1.395-.137 3.496.752 4.493zM12 44.933c1.205 0 2.182-.955 2.182-2.133s-.977-2.133-2.182-2.133-2.182.955-2.182 2.133.977 2.133 2.182 2.133zm-2.443 6.613c.323-.494.807-1.695.807-4.479 0-2.845-3.273-3.2-3.273-3.2s-2.568-.173-3.965 2.334c1.233 2.625 3.579 4.61 6.431 5.345zM12 32.133c-5.164 0-9.388 4.01-9.78 9.098.252.279.595.502 1.053.502 1.227 0 4.863-2.666 8.727-2.666s7 2.666 8.727 2.666c.489 0 .821-.134 1.062-.317-.303-5.176-4.563-9.283-9.789-9.283z" class="cls-1"/><path d="M12 24C5.373 24 0 18.627 0 12S5.373 0 12 0s12 5.373 12 12-5.373 12-12 12zm2.388-2.44c2.878-.724 5.246-2.718 6.487-5.362-.704-1.073-2.181-2.227-3.42-2.331-1.591-.134-3.819 1.644-3.819 3.2 0 1.395-.137 3.496.752 4.493zM12 14.933c1.205 0 2.182-.955 2.182-2.133s-.977-2.133-2.182-2.133-2.182.955-2.182 2.133.977 2.133 2.182 2.133zm-2.443 6.613c.323-.494.807-1.695.807-4.479 0-2.845-3.273-3.2-3.273-3.2s-2.568-.173-3.965 2.334c1.233 2.625 3.579 4.61 6.431 5.345zM12 2.133c-5.164 0-9.388 4.01-9.78 9.098.252.279.595.502 1.053.502 1.227 0 4.863-2.666 8.727-2.666s7 2.666 8.727 2.666c.489 0 .821-.134 1.062-.317C21.486 6.24 17.226 2.133 12 2.133z" class="cls-2"/></svg>