<svg xmlns="http://www.w3.org/2000/svg" xmlns:xlink="http://www.w3.org/1999/xlink" preserveAspectRatio="xMidYMid" width="24" height="54" viewBox="0 0 24 54">
  <defs>
    <style>
      .cls-1 {
        fill: #ed1c24;
      }

      .cls-1, .cls-2 {
        fill-rule: evenodd;
      }

      .cls-2 {
        fill: #404040;
      }
    </style>
  </defs>
  <path d="M22.500,14.308 L20.551,14.795 C20.405,15.241 20.223,15.669 20.014,16.081 L21.056,17.818 C21.445,18.439 21.641,19.353 21.056,19.939 L19.995,21.000 C19.410,21.586 18.421,21.479 17.824,21.066 L16.132,19.989 C15.699,20.212 15.247,20.404 14.776,20.557 L14.344,22.510 C14.215,23.224 13.590,23.999 12.761,23.999 L11.262,23.999 C10.433,23.999 9.926,23.212 9.762,22.498 L9.281,20.578 C8.770,20.416 8.280,20.208 7.812,19.961 L6.077,21.066 C5.481,21.479 4.492,21.586 3.907,21.000 L2.845,19.939 C2.260,19.353 2.456,18.439 2.845,17.818 L3.942,15.990 C3.752,15.605 3.584,15.208 3.449,14.795 L1.500,14.308 C0.785,14.144 -0.000,13.636 -0.000,12.808 L-0.000,11.309 C-0.000,10.480 0.773,9.855 1.488,9.727 L3.412,9.299 C3.553,8.851 3.736,8.424 3.941,8.009 L2.845,6.183 C2.456,5.562 2.260,4.647 2.845,4.061 L3.906,3.001 C4.492,2.415 5.481,2.521 6.077,2.935 L7.808,4.037 C8.273,3.792 8.760,3.585 9.269,3.423 L9.750,1.497 C9.914,0.783 10.421,-0.002 11.250,-0.002 L12.750,-0.002 C13.578,-0.002 14.203,0.771 14.332,1.486 L14.764,3.434 C15.240,3.589 15.698,3.782 16.136,4.010 L17.824,2.935 C18.421,2.521 19.410,2.415 19.995,3.001 L21.056,4.061 C21.641,4.647 21.445,5.562 21.056,6.183 L20.015,7.919 C20.240,8.360 20.437,8.819 20.587,9.299 L22.512,9.727 C23.226,9.855 24.000,10.480 24.000,11.309 L24.000,12.808 C24.000,13.636 23.215,14.144 22.500,14.308 ZM22.186,11.190 L19.414,10.575 L19.155,9.747 C19.039,9.375 18.883,9.001 18.679,8.600 L18.300,7.860 L19.785,5.388 C19.867,5.256 19.908,5.127 19.921,5.049 L18.937,4.093 C18.839,4.093 18.731,4.131 18.630,4.200 L16.212,5.740 L15.444,5.341 C15.070,5.147 14.686,4.986 14.303,4.862 L13.486,4.598 L12.856,1.753 C12.836,1.644 12.740,1.514 12.750,1.497 L11.355,1.497 C11.309,1.563 11.245,1.688 11.205,1.862 L10.521,4.598 L9.724,4.853 C9.312,4.983 8.903,5.155 8.507,5.364 L7.737,5.771 L5.222,4.167 C5.170,4.131 5.062,4.093 4.967,4.062 L3.981,5.048 C3.994,5.126 4.037,5.261 4.131,5.412 L5.649,7.940 L5.285,8.676 C5.094,9.061 4.950,9.413 4.844,9.749 L4.584,10.576 L1.754,11.202 C1.651,11.220 1.528,11.309 1.503,11.309 C1.502,11.309 1.501,11.309 1.500,11.309 L1.500,12.703 C1.565,12.749 1.690,12.813 1.863,12.852 L4.617,13.542 L4.875,14.330 C4.980,14.652 5.115,14.977 5.286,15.323 L5.651,16.058 L4.117,18.614 C4.035,18.745 3.994,18.873 3.981,18.951 L4.965,19.908 C5.063,19.908 5.171,19.870 5.271,19.802 L7.741,18.227 L8.512,18.634 C8.912,18.845 9.322,19.018 9.734,19.148 L10.533,19.401 L11.223,22.162 C11.258,22.314 11.321,22.434 11.367,22.498 L12.717,22.498 C12.771,22.455 12.851,22.335 12.879,22.185 L13.498,19.393 L14.315,19.129 C14.693,19.007 15.072,18.848 15.442,18.656 L16.210,18.259 L18.679,19.833 C18.731,19.870 18.839,19.908 18.934,19.938 L19.921,18.953 C19.908,18.874 19.864,18.740 19.770,18.590 L18.301,16.139 L18.677,15.401 C18.858,15.045 19.009,14.684 19.126,14.328 L19.383,13.541 L22.164,12.846 C22.317,12.811 22.437,12.748 22.501,12.702 L22.512,11.371 C22.484,11.319 22.354,11.221 22.186,11.190 ZM12.010,16.506 C9.519,16.506 7.493,14.483 7.493,11.998 C7.493,9.512 9.519,7.491 12.010,7.491 C14.501,7.491 16.527,9.512 16.527,11.998 C16.527,14.483 14.501,16.506 12.010,16.506 ZM12.000,8.998 C10.345,8.998 9.000,10.344 9.000,11.998 C9.000,13.651 10.345,14.997 12.000,14.997 C13.654,14.997 15.000,13.651 15.000,11.998 C15.000,10.344 13.654,8.998 12.000,8.998 Z" class="cls-1"/>
  <path d="M22.500,44.308 L20.551,44.795 C20.405,45.241 20.223,45.669 20.014,46.081 L21.056,47.818 C21.445,48.439 21.641,49.353 21.056,49.939 L19.995,51.000 C19.410,51.586 18.421,51.479 17.824,51.066 L16.132,49.989 C15.699,50.212 15.247,50.404 14.776,50.557 L14.344,52.510 C14.215,53.224 13.590,53.999 12.761,53.999 L11.262,53.999 C10.433,53.999 9.926,53.212 9.762,52.498 L9.281,50.578 C8.770,50.416 8.280,50.208 7.812,49.961 L6.077,51.066 C5.481,51.479 4.492,51.586 3.907,51.000 L2.845,49.939 C2.260,49.353 2.456,48.439 2.845,47.818 L3.942,45.990 C3.752,45.605 3.584,45.208 3.449,44.795 L1.500,44.308 C0.785,44.144 -0.000,43.636 -0.000,42.808 L-0.000,41.309 C-0.000,40.480 0.773,39.855 1.488,39.727 L3.412,39.299 C3.553,38.851 3.736,38.424 3.941,38.009 L2.845,36.183 C2.456,35.562 2.260,34.647 2.845,34.061 L3.906,33.001 C4.492,32.415 5.481,32.521 6.077,32.935 L7.808,34.037 C8.273,33.792 8.760,33.585 9.269,33.423 L9.750,31.497 C9.914,30.783 10.421,29.998 11.250,29.998 L12.750,29.998 C13.578,29.998 14.203,30.771 14.332,31.486 L14.764,33.434 C15.240,33.589 15.698,33.782 16.136,34.010 L17.824,32.935 C18.421,32.521 19.410,32.415 19.995,33.001 L21.056,34.061 C21.641,34.647 21.445,35.562 21.056,36.183 L20.015,37.919 C20.240,38.360 20.437,38.819 20.587,39.299 L22.512,39.727 C23.226,39.855 24.000,40.480 24.000,41.309 L24.000,42.808 C24.000,43.636 23.215,44.144 22.500,44.308 ZM22.186,41.190 L19.414,40.575 L19.155,39.747 C19.039,39.375 18.883,39.001 18.679,38.600 L18.300,37.860 L19.785,35.388 C19.867,35.256 19.908,35.127 19.921,35.049 L18.937,34.093 C18.839,34.093 18.731,34.131 18.630,34.200 L16.212,35.740 L15.444,35.341 C15.070,35.147 14.686,34.986 14.303,34.862 L13.486,34.598 L12.856,31.753 C12.836,31.644 12.740,31.514 12.750,31.497 L11.355,31.497 C11.309,31.563 11.245,31.688 11.205,31.862 L10.521,34.598 L9.724,34.853 C9.312,34.983 8.903,35.155 8.507,35.364 L7.737,35.771 L5.222,34.167 C5.170,34.131 5.062,34.093 4.967,34.062 L3.981,35.048 C3.994,35.126 4.037,35.261 4.131,35.412 L5.649,37.940 L5.285,38.676 C5.094,39.061 4.950,39.413 4.844,39.749 L4.584,40.576 L1.754,41.202 C1.651,41.220 1.528,41.309 1.503,41.309 C1.502,41.309 1.501,41.309 1.500,41.309 L1.500,42.703 C1.565,42.749 1.690,42.813 1.863,42.852 L4.617,43.542 L4.875,44.330 C4.980,44.652 5.115,44.977 5.286,45.323 L5.651,46.058 L4.117,48.614 C4.035,48.745 3.994,48.873 3.981,48.951 L4.965,49.908 C5.063,49.908 5.171,49.870 5.271,49.802 L7.741,48.227 L8.512,48.634 C8.912,48.845 9.322,49.018 9.734,49.148 L10.533,49.401 L11.223,52.162 C11.258,52.314 11.321,52.434 11.367,52.498 L12.717,52.498 C12.771,52.455 12.851,52.335 12.879,52.185 L13.498,49.393 L14.315,49.129 C14.693,49.007 15.072,48.848 15.442,48.656 L16.210,48.259 L18.679,49.833 C18.731,49.870 18.839,49.908 18.934,49.938 L19.921,48.953 C19.908,48.874 19.864,48.740 19.770,48.590 L18.301,46.139 L18.677,45.401 C18.858,45.045 19.009,44.684 19.126,44.328 L19.383,43.541 L22.164,42.846 C22.317,42.811 22.437,42.748 22.501,42.702 L22.512,41.371 C22.484,41.319 22.354,41.221 22.186,41.190 ZM12.010,46.506 C9.519,46.506 7.493,44.483 7.493,41.998 C7.493,39.512 9.519,37.491 12.010,37.491 C14.501,37.491 16.527,39.512 16.527,41.998 C16.527,44.483 14.501,46.506 12.010,46.506 ZM12.000,38.998 C10.345,38.998 9.000,40.344 9.000,41.998 C9.000,43.651 10.345,44.997 12.000,44.997 C13.654,44.997 15.000,43.651 15.000,41.998 C15.000,40.344 13.654,38.998 12.000,38.998 Z" class="cls-2"/>
</svg>
