<svg xmlns="http://www.w3.org/2000/svg" xmlns:xlink="http://www.w3.org/1999/xlink" preserveAspectRatio="xMidYMid" width="20" height="20" viewBox="0 0 20 20">
  <defs>
    <style>
      .cls-1 {
        fill: #ed1c24;
        fill-rule: evenodd;
      }
    </style>
  </defs>
  <path d="M19.699,9.283 L10.685,0.269 L10.685,0.269 C10.284,-0.132 9.683,-0.132 9.283,0.269 L0.269,9.283 C-0.132,9.683 -0.132,10.284 0.269,10.685 L9.283,19.699 L9.283,19.699 C9.683,20.099 10.284,20.099 10.685,19.699 L19.699,10.685 C20.099,10.284 20.099,9.683 19.699,9.283 ZM11.987,12.488 L11.987,9.984 L7.981,9.984 L7.981,12.988 L5.977,12.988 L5.977,8.982 C5.977,8.381 6.378,7.981 6.979,7.981 L11.987,7.981 L11.987,5.477 L15.492,8.982 L11.987,12.488 Z" class="cls-1"/>
</svg>
