<svg xmlns="http://www.w3.org/2000/svg" xmlns:xlink="http://www.w3.org/1999/xlink" preserveAspectRatio="xMidYMid" width="24" height="24" viewBox="0 0 24 24">
  <defs>
    <style>
      .cls-1 {
        fill: #ed1c24;
        fill-rule: evenodd;
      }
    </style>
  </defs>
  <path d="M5,0 C4,-0 3,1 2,1 C-2,6 1,13 6,18 L6,18 C9,21 13,24 18,24 C18,24 18,24 18,24 C20,24 21,23 23,22 C23,22 24,20 24,18 C24,17 22,14 19,13 C18,13 16,13 15,14 C14,15 14,16 14,16 C13,16 12,16 10,14 C8,12 8,11 8,10 C8,10 9,10 10,9 C11,8 11,6 11,5 C10,2 7,0 6,0 C6,0 5,0 5,0 ZM18,22 C14,22 10,20 7,17 L7,17 C3,12 -0,6 3,2 C3,2 4,2 5,2 C6,2 9,4 9,5 C9,6 9,7 9,7 C8,8 8,8 7,8 C7,8 7,8 6,9 C6,9 6,9 6,10 C6,11 7,13 9,15 C11,17 13,18 14,18 C15,18 15,18 15,18 C16,17 16,17 16,17 C16,16 16,16 16,15 C17,15 18,15 19,15 C20,15 22,18 22,18 C22,19 22,20 21,21 C20,22 19,22 18,22 Z" class="cls-1"/>
</svg>