<svg xmlns="http://www.w3.org/2000/svg" xmlns:xlink="http://www.w3.org/1999/xlink" preserveAspectRatio="xMidYMid" width="14" height="36" viewBox="0 0 14 36">
  <defs>
    <style>
      .cls-1 {
        fill: #ed1c24;
      }

      .cls-1, .cls-2 {
        fill-rule: evenodd;
      }

      .cls-2 {
        fill: #404040;
      }
    </style>
  </defs>
  <path d="M12.000,15.999 L11.000,15.999 L11.000,15.999 L3.000,15.999 L3.000,15.999 L2.000,15.999 C0.895,15.999 -0.000,15.103 -0.000,13.999 L-0.000,2.999 C-0.000,1.894 0.895,0.999 2.000,0.999 L3.000,0.999 L4.000,0.999 C4.000,0.874 4.029,0.757 4.071,0.647 C4.083,0.615 4.099,0.586 4.115,0.555 C4.154,0.478 4.200,0.408 4.257,0.344 C4.280,0.318 4.299,0.293 4.325,0.270 C4.409,0.192 4.503,0.123 4.610,0.077 C4.730,0.026 4.862,-0.001 5.000,-0.001 L6.000,-0.001 L8.000,-0.001 L9.000,-0.001 C9.138,-0.001 9.269,0.026 9.389,0.077 C9.497,0.123 9.590,0.192 9.675,0.270 C9.700,0.293 9.720,0.318 9.742,0.344 C9.799,0.408 9.846,0.478 9.884,0.555 C9.900,0.586 9.916,0.615 9.929,0.647 C9.971,0.757 10.000,0.874 10.000,0.999 L11.000,0.999 L12.000,0.999 C13.104,0.999 14.000,1.894 14.000,2.999 L14.000,13.999 C14.000,15.103 13.104,15.999 12.000,15.999 ZM12.000,11.999 L12.000,7.998 L12.000,5.999 L12.000,3.998 C12.000,3.446 11.552,2.999 11.000,2.999 L10.000,2.999 C10.000,3.551 9.552,3.998 9.000,3.998 L5.000,3.998 C4.447,3.998 4.000,3.551 4.000,2.999 L3.000,2.999 C2.447,2.999 2.000,3.446 2.000,3.998 L2.000,5.999 L2.000,7.998 L2.000,11.999 L2.000,12.998 C2.000,13.551 2.447,13.999 3.000,13.999 L11.000,13.999 C11.552,13.999 12.000,13.551 12.000,12.998 L12.000,11.999 ZM9.000,11.999 C8.447,11.999 8.000,11.551 8.000,10.999 C8.000,10.446 8.447,9.998 9.000,9.998 C9.552,9.998 10.000,10.446 10.000,10.999 C10.000,11.551 9.552,11.999 9.000,11.999 ZM9.000,7.998 L5.000,7.998 C4.447,7.998 4.000,7.551 4.000,6.998 C4.000,6.447 4.447,5.999 5.000,5.999 L9.000,5.999 C9.552,5.999 10.000,6.447 10.000,6.998 C10.000,7.551 9.552,7.998 9.000,7.998 ZM5.000,9.998 L6.000,9.998 C6.552,9.998 7.000,10.446 7.000,10.999 C7.000,11.551 6.552,11.999 6.000,11.999 L5.000,11.999 C4.447,11.999 4.000,11.551 4.000,10.999 C4.000,10.446 4.447,9.998 5.000,9.998 Z" class="cls-1"/>
  <path d="M12.000,35.999 L11.000,35.999 L11.000,35.999 L3.000,35.999 L3.000,35.999 L2.000,35.999 C0.895,35.999 -0.000,35.103 -0.000,33.999 L-0.000,22.999 C-0.000,21.894 0.895,20.999 2.000,20.999 L3.000,20.999 L4.000,20.999 C4.000,20.874 4.029,20.757 4.071,20.647 C4.083,20.615 4.099,20.586 4.115,20.555 C4.154,20.478 4.200,20.408 4.257,20.344 C4.280,20.318 4.299,20.293 4.325,20.270 C4.409,20.192 4.503,20.123 4.610,20.077 C4.730,20.026 4.862,19.999 5.000,19.999 L6.000,19.999 L8.000,19.999 L9.000,19.999 C9.138,19.999 9.269,20.026 9.389,20.077 C9.497,20.123 9.590,20.192 9.675,20.270 C9.700,20.293 9.720,20.318 9.742,20.344 C9.799,20.408 9.846,20.478 9.884,20.555 C9.900,20.586 9.916,20.615 9.929,20.647 C9.971,20.757 10.000,20.874 10.000,20.999 L11.000,20.999 L12.000,20.999 C13.104,20.999 14.000,21.894 14.000,22.999 L14.000,33.999 C14.000,35.103 13.104,35.999 12.000,35.999 ZM12.000,31.999 L12.000,27.998 L12.000,25.999 L12.000,23.998 C12.000,23.446 11.552,22.999 11.000,22.999 L10.000,22.999 C10.000,23.551 9.552,23.998 9.000,23.998 L5.000,23.998 C4.447,23.998 4.000,23.551 4.000,22.999 L3.000,22.999 C2.447,22.999 2.000,23.446 2.000,23.998 L2.000,25.999 L2.000,27.998 L2.000,31.999 L2.000,32.998 C2.000,33.551 2.447,33.999 3.000,33.999 L11.000,33.999 C11.552,33.999 12.000,33.551 12.000,32.998 L12.000,31.999 ZM9.000,31.999 C8.447,31.999 8.000,31.551 8.000,30.999 C8.000,30.446 8.447,29.998 9.000,29.998 C9.552,29.998 10.000,30.446 10.000,30.999 C10.000,31.551 9.552,31.999 9.000,31.999 ZM9.000,27.998 L5.000,27.998 C4.447,27.998 4.000,27.551 4.000,26.998 C4.000,26.447 4.447,25.999 5.000,25.999 L9.000,25.999 C9.552,25.999 10.000,26.447 10.000,26.998 C10.000,27.551 9.552,27.998 9.000,27.998 ZM5.000,29.998 L6.000,29.998 C6.552,29.998 7.000,30.446 7.000,30.999 C7.000,31.551 6.552,31.999 6.000,31.999 L5.000,31.999 C4.447,31.999 4.000,31.551 4.000,30.999 C4.000,30.446 4.447,29.998 5.000,29.998 Z" class="cls-2"/>
</svg>
