<svg xmlns="http://www.w3.org/2000/svg" xmlns:xlink="http://www.w3.org/1999/xlink" preserveAspectRatio="xMidYMid" width="16" height="36" viewBox="0 0 16 36">
  <defs>
    <style>
      .cls-1 {
        fill: #404040;
      }

      .cls-1, .cls-2 {
        fill-rule: evenodd;
      }

      .cls-2 {
        fill: #ed1c24;
      }
    </style>
  </defs>
  <path d="M8.000,36.000 C3.582,36.000 -0.000,32.418 -0.000,28.000 C-0.000,23.582 3.582,20.000 8.000,20.000 C12.418,20.000 16.000,23.582 16.000,28.000 C16.000,32.418 12.418,36.000 8.000,36.000 ZM9.592,34.374 C11.510,33.891 13.090,32.561 13.917,30.799 C13.447,30.083 12.463,29.314 11.636,29.244 C10.576,29.156 9.091,30.341 9.091,31.378 C9.091,32.308 8.999,33.709 9.592,34.374 ZM8.000,29.956 C8.803,29.956 9.455,29.319 9.455,28.533 C9.455,27.748 8.803,27.111 8.000,27.111 C7.197,27.111 6.545,27.748 6.545,28.533 C6.545,29.319 7.197,29.956 8.000,29.956 ZM6.371,34.364 C6.587,34.035 6.909,33.234 6.909,31.378 C6.909,29.481 4.727,29.244 4.727,29.244 C4.727,29.244 3.015,29.129 2.084,30.801 C2.906,32.551 4.470,33.874 6.371,34.364 ZM8.000,21.422 C4.557,21.422 1.741,24.095 1.480,27.488 C1.648,27.674 1.877,27.822 2.182,27.822 C3.000,27.822 5.424,26.044 8.000,26.044 C10.576,26.044 12.667,27.822 13.818,27.822 C14.144,27.822 14.365,27.733 14.526,27.610 C14.324,24.160 11.484,21.422 8.000,21.422 Z" class="cls-1"/>
  <path d="M8.000,16.000 C3.582,16.000 -0.000,12.418 -0.000,8.000 C-0.000,3.582 3.582,-0.000 8.000,-0.000 C12.418,-0.000 16.000,3.582 16.000,8.000 C16.000,12.418 12.418,16.000 8.000,16.000 ZM9.592,14.374 C11.510,13.891 13.090,12.561 13.917,10.799 C13.447,10.083 12.463,9.314 11.636,9.244 C10.576,9.156 9.091,10.341 9.091,11.378 C9.091,12.308 8.999,13.709 9.592,14.374 ZM8.000,9.956 C8.803,9.956 9.455,9.319 9.455,8.533 C9.455,7.748 8.803,7.111 8.000,7.111 C7.197,7.111 6.545,7.748 6.545,8.533 C6.545,9.319 7.197,9.956 8.000,9.956 ZM6.371,14.364 C6.587,14.035 6.909,13.234 6.909,11.378 C6.909,9.481 4.727,9.244 4.727,9.244 C4.727,9.244 3.015,9.129 2.084,10.801 C2.906,12.551 4.470,13.874 6.371,14.364 ZM8.000,1.422 C4.557,1.422 1.741,4.095 1.480,7.488 C1.648,7.674 1.877,7.822 2.182,7.822 C3.000,7.822 5.424,6.044 8.000,6.044 C10.576,6.044 12.667,7.822 13.818,7.822 C14.144,7.822 14.365,7.733 14.526,7.610 C14.324,4.160 11.484,1.422 8.000,1.422 Z" class="cls-2"/>
</svg>
