<?xml version="1.0" encoding="utf-8"?>
<!-- Generator: Adobe Illustrator 18.1.1, SVG Export Plug-In . SVG Version: 6.00 Build 0)  -->
<svg version="1.1" id="Capa_1" xmlns="http://www.w3.org/2000/svg" xmlns:xlink="http://www.w3.org/1999/xlink" x="0px" y="0px"
	 viewBox="-339 164.89 512 512" enable-background="new -339 164.89 512 512" xml:space="preserve">
<path fill="#6E6E6E" d="M171.388,392.467c-0.808-7.196-9.202-12.61-16.46-12.61c-23.457,0-44.275-13.768-53.006-35.078
	c-8.912-21.821-3.162-47.265,14.315-63.298c5.505-5.033,6.175-13.46,1.561-19.31c-12.01-15.247-25.654-29.022-40.556-40.959
	c-5.83-4.676-14.397-4.025-19.456,1.574c-15.258,16.899-42.668,23.178-63.849,14.341c-22.034-9.271-35.941-31.606-34.575-55.579
	c0.449-7.535-5.059-14.082-12.568-14.957c-19.124-2.214-38.417-2.278-57.596-0.151c-7.413,0.819-12.918,7.212-12.672,14.651
	c0.83,23.739-13.234,45.679-35.055,54.618c-20.927,8.549-48.146,2.316-63.373-14.434c-5.033-5.518-13.449-6.195-19.319-1.619
	c-15.34,12.039-29.292,25.822-41.413,40.945c-4.723,5.879-4.025,14.399,1.526,19.45c17.822,16.139,23.568,41.802,14.315,63.878
	c-8.835,21.046-30.687,34.604-55.701,34.604c-8.117-0.261-13.894,5.192-14.791,12.575c-2.25,19.226-2.274,38.826-0.108,58.21
	c0.808,7.227,9.45,12.594,16.788,12.594c22.297-0.567,43.691,13.228,52.678,35.075c8.943,21.821,3.186,47.254-14.319,63.309
	c-5.476,5.033-6.175,13.44-1.552,19.284c11.888,15.152,25.545,28.935,40.491,40.974c5.868,4.725,14.401,4.063,19.487-1.543
	c15.318-16.939,42.723-23.207,63.818-14.353c22.098,9.247,35.999,31.579,34.641,55.559c-0.445,7.535,5.077,14.102,12.559,14.957
	c9.787,1.145,19.625,1.712,29.493,1.712c9.366,0,18.734-0.511,28.103-1.554c7.422-0.819,12.918-7.218,12.668-14.66
	c-0.857-23.728,13.239-45.67,35.033-54.591c21.066-8.604,48.164-2.307,63.4,14.419c5.059,5.507,13.425,6.175,19.319,1.616
	c15.314-12.008,29.239-25.785,41.413-40.948c4.727-5.868,4.056-14.399-1.526-19.458c-17.818-16.128-23.595-41.802-14.341-63.856
	c8.697-20.763,29.737-34.703,52.366-34.703l3.166,0.084c7.347,0.596,14.098-5.062,14.986-12.557
	C173.538,431.435,173.562,411.857,171.388,392.467z M-83.001,568.475c-81.512,0-147.586-66.074-147.586-147.584
	s66.077-147.584,147.586-147.584S64.585,339.381,64.585,420.891c0,27.667-7.628,53.544-20.876,75.673l-64.624-64.626
	c4.679-11.031,7.15-22.99,7.147-35.332c0-24.168-9.413-46.888-26.504-63.975c-17.087-17.087-39.807-26.498-63.971-26.498
	c-8.064,0-16.091,1.072-23.856,3.186c-3.401,0.928-6.182,3.731-7.088,7.139c-0.926,3.485,0.117,7.057,2.841,9.782
	c0,0,31.905,32.15,42.579,42.823c1.118,1.118,1.116,3.786,0.959,4.747l-0.1,0.702c-1.076,11.735-3.151,25.822-4.862,31.236
	c-0.23,0.228-0.447,0.421-0.682,0.655c-0.246,0.246-0.472,0.483-0.709,0.726c-5.485,1.76-19.788,3.859-31.71,4.927l0.002-0.064
	l-0.536,0.135c-0.095,0.011-0.272,0.024-0.507,0.024c-1.289,0-3.184-0.361-4.907-2.081c-11.111-11.111-41.765-41.545-41.765-41.545
	c-2.75-2.741-5.571-3.317-7.451-3.317c-4.382,0-8.306,3.166-9.541,7.708c-8.438,31.227,0.507,64.817,23.351,87.663
	c17.092,17.089,39.814,26.5,63.982,26.5c12.342,0,24.301-2.469,35.33-7.147l65.326,65.326
	C-26.519,559.933-53.754,568.475-83.001,568.475z"/>
</svg>
