<svg xmlns="http://www.w3.org/2000/svg" xmlns:xlink="http://www.w3.org/1999/xlink" preserveAspectRatio="xMidYMid" width="12" height="36" viewBox="0 0 12 36">
  <defs>
    <style>
      .cls-1 {
        fill: #ed1c24;
      }

      .cls-1, .cls-2 {
        fill-rule: evenodd;
      }

      .cls-2 {
        fill: #404040;
      }
    </style>
  </defs>
  <path d="M11.999,6.623 C11.999,2.962 9.313,-0.006 5.999,-0.006 C2.686,-0.006 -0.001,2.962 -0.001,6.623 C-0.001,6.739 0.010,6.851 0.015,6.965 C0.010,7.021 -0.001,7.075 -0.001,7.133 C-0.001,11.213 5.538,15.834 5.538,15.834 C5.538,15.834 5.999,16.217 6.461,15.834 C6.922,15.452 11.999,11.213 11.999,7.133 C11.999,7.075 11.989,7.021 11.984,6.965 C11.989,6.851 11.999,6.739 11.999,6.623 ZM5.999,9.173 C4.725,9.173 3.692,8.031 3.692,6.623 C3.692,5.215 4.725,4.073 5.999,4.073 C7.274,4.073 8.307,5.215 8.307,6.623 C8.307,8.031 7.274,9.173 5.999,9.173 Z" class="cls-1"/>
  <path d="M11.999,26.623 C11.999,22.962 9.313,19.994 5.999,19.994 C2.686,19.994 -0.001,22.962 -0.001,26.623 C-0.001,26.739 0.010,26.851 0.015,26.965 C0.010,27.021 -0.001,27.075 -0.001,27.133 C-0.001,31.213 5.538,35.834 5.538,35.834 C5.538,35.834 5.999,36.217 6.461,35.834 C6.922,35.452 11.999,31.213 11.999,27.133 C11.999,27.075 11.989,27.021 11.984,26.965 C11.989,26.851 11.999,26.739 11.999,26.623 ZM5.999,29.173 C4.725,29.173 3.692,28.031 3.692,26.623 C3.692,25.215 4.725,24.073 5.999,24.073 C7.274,24.073 8.307,25.215 8.307,26.623 C8.307,28.031 7.274,29.173 5.999,29.173 Z" class="cls-2"/>
</svg>
