<svg xmlns="http://www.w3.org/2000/svg" xmlns:xlink="http://www.w3.org/1999/xlink" preserveAspectRatio="xMidYMid" width="24" height="24" viewBox="0 0 24 24">
  <defs>
    <style>
      .cls-1 {
        fill: #ed1c24;
      }

      .cls-1, .cls-2 {
        fill-rule: evenodd;
      }

      .cls-2 {
        fill: gray;
      }
    </style>
  </defs>
  <path d="M22.509,12.001 L22.509,22.405 C22.509,23.287 21.838,24.003 21.009,24.003 L3.017,24.003 C2.188,24.003 1.517,23.287 1.517,22.405 L1.517,12.001 L0.003,12.001 L0.003,7.217 C0.003,6.335 0.675,5.619 1.503,5.619 L4.121,5.619 C3.441,4.922 2.995,4.013 2.995,2.885 C2.995,1.501 3.742,-0.003 5.836,-0.003 C8.593,-0.003 10.966,3.124 12.048,4.877 C13.130,3.124 15.433,-0.003 18.189,-0.003 C20.283,-0.003 21.030,1.501 21.030,2.885 C21.030,4.013 20.596,4.922 19.929,5.619 L22.503,5.619 C23.332,5.619 24.003,6.335 24.003,7.217 L24.003,12.001 L22.509,12.001 ZM21.009,12.001 L12.753,12.001 L12.753,22.405 L21.009,22.405 L21.009,12.001 ZM5.836,1.595 C4.909,1.595 4.495,1.985 4.495,2.860 C4.495,4.636 6.425,5.618 8.174,5.618 L10.714,5.618 C9.649,3.932 7.702,1.595 5.836,1.595 ZM11.253,7.217 L1.503,7.217 L1.503,10.403 L11.253,10.403 L11.253,7.217 ZM3.017,12.001 L3.017,22.405 L11.253,22.405 L11.253,12.001 L3.017,12.001 ZM18.189,1.595 C16.323,1.595 14.448,3.932 13.382,5.618 L15.921,5.618 C17.670,5.618 19.530,4.661 19.530,2.885 C19.530,2.010 19.116,1.595 18.189,1.595 ZM22.503,7.217 L12.753,7.217 L12.753,10.403 L22.503,10.403 L22.503,7.217 Z" class="cls-1"/>
  <path d="M22.506,42.001 L22.506,52.404 C22.506,53.287 21.834,54.003 21.006,54.003 L3.016,54.003 C2.188,54.003 1.516,53.287 1.516,52.404 L1.516,42.001 L0.003,42.001 L0.003,37.217 C0.003,36.334 0.675,35.619 1.503,35.619 L4.120,35.619 C3.440,34.922 2.995,34.013 2.995,32.885 C2.995,31.501 3.741,29.997 5.836,29.997 C8.591,29.997 10.964,33.124 12.046,34.877 C13.128,33.124 15.430,29.997 18.186,29.997 C20.280,29.997 21.027,31.501 21.027,32.885 C21.027,34.013 20.593,34.922 19.926,35.619 L22.500,35.619 C23.328,35.619 24.000,36.334 24.000,37.217 L24.000,42.001 L22.506,42.001 ZM21.006,42.001 L12.751,42.001 L12.751,52.404 L21.006,52.404 L21.006,42.001 ZM5.836,31.595 C4.908,31.595 4.495,31.985 4.495,32.860 C4.495,34.636 6.424,35.618 8.173,35.618 L10.713,35.618 C9.647,33.932 7.701,31.595 5.836,31.595 ZM11.252,37.217 L1.503,37.217 L1.503,40.403 L11.252,40.403 L11.252,37.217 ZM3.016,42.001 L3.016,52.404 L11.252,52.404 L11.252,42.001 L3.016,42.001 ZM18.186,31.595 C16.321,31.595 14.445,33.932 13.380,35.618 L15.919,35.618 C17.668,35.618 19.527,34.661 19.527,32.885 C19.527,32.010 19.113,31.595 18.186,31.595 ZM22.500,37.217 L12.751,37.217 L12.751,40.403 L22.500,40.403 L22.500,37.217 Z" class="cls-2"/>
</svg>
