<svg xmlns="http://www.w3.org/2000/svg" xmlns:xlink="http://www.w3.org/1999/xlink" preserveAspectRatio="xMidYMid" width="48" height="48" viewBox="0 0 48 48">
  <defs>
    <style>
      .cls-1 {
        fill: gray;
        fill-rule: evenodd;
      }
    </style>
  </defs>
  <path d="M10.006,-0.000 C7.346,-0.001 5.182,1.405 4.210,2.382 C-4.738,11.377 1.865,26.207 11.788,36.180 L11.788,36.180 C17.472,41.894 26.569,47.999 35.051,47.999 C35.051,47.999 35.051,47.999 35.052,47.999 C39.175,47.999 42.670,46.586 45.442,43.799 C45.576,43.664 48.722,40.445 47.799,36.199 C47.209,33.483 43.052,27.584 38.027,26.098 C35.191,25.258 32.560,25.942 30.417,28.074 C28.359,30.123 27.769,31.553 27.718,32.711 C26.350,32.399 23.475,31.001 20.220,27.728 C16.857,24.350 15.438,21.407 15.154,20.090 C16.327,19.945 17.638,19.247 19.579,17.316 C21.700,15.204 22.392,12.609 21.579,9.814 C20.143,4.874 14.315,0.766 11.620,0.174 C11.067,0.053 10.527,-0.000 10.006,-0.000 ZM35.051,44.443 C28.865,44.444 20.914,40.316 14.303,33.671 L14.303,33.671 C5.306,24.628 -0.186,11.839 6.726,4.890 C6.744,4.872 8.542,3.140 10.861,3.649 C12.471,4.001 17.133,7.239 18.170,10.807 C18.616,12.340 18.268,13.606 17.076,14.793 C16.383,15.482 15.124,16.667 14.563,16.563 C14.195,16.523 13.334,16.424 12.531,17.160 C12.103,17.551 11.585,18.277 11.557,19.503 C11.493,22.208 13.906,26.422 17.705,30.238 C21.449,34.001 25.684,36.372 28.395,36.326 C29.649,36.296 30.385,35.767 30.781,35.330 C31.575,34.452 31.371,33.465 31.294,33.093 C31.257,32.913 31.143,32.365 32.920,30.596 C34.136,29.386 35.441,29.038 37.022,29.507 C40.680,30.590 43.976,35.326 44.330,36.955 C44.756,38.915 43.427,40.788 42.928,41.289 C40.845,43.382 38.196,44.443 35.051,44.443 Z" class="cls-1"/>
</svg>
