<svg xmlns="http://www.w3.org/2000/svg" xmlns:xlink="http://www.w3.org/1999/xlink" preserveAspectRatio="xMidYMid" width="24" height="54" viewBox="0 0 24 54">
  <defs>
    <style>
      .cls-1 {
        fill: #ed1c24;
      }

      .cls-1, .cls-2 {
        fill-rule: evenodd;
      }

      .cls-2 {
        fill: #404040;
      }
    </style>
  </defs>
  <path d="M16.000,23.999 C14.544,23.999 13.177,23.592 12.000,22.883 C10.823,23.592 9.456,23.999 8.000,23.999 C3.589,23.999 -0.000,20.271 -0.000,15.690 C-0.000,12.621 1.611,9.936 4.002,8.497 C4.001,8.432 4.000,8.370 4.000,8.305 C4.000,3.725 7.589,-0.001 12.000,-0.001 C16.411,-0.001 20.000,3.725 20.000,8.305 C20.000,8.370 19.999,8.432 19.998,8.497 C22.388,9.936 24.000,12.621 24.000,15.690 C24.000,20.271 20.411,23.999 16.000,23.999 ZM13.576,21.642 C14.321,21.970 15.140,22.152 16.000,22.152 C19.431,22.152 22.222,19.253 22.222,15.690 C22.222,13.572 21.236,11.689 19.714,10.510 C19.151,12.634 17.795,14.419 15.998,15.500 C15.999,15.563 16.000,15.628 16.000,15.690 C16.000,18.023 15.070,20.132 13.576,21.642 ZM4.285,10.510 C2.764,11.689 1.778,13.572 1.778,15.690 C1.778,19.253 4.569,22.152 8.000,22.152 C8.859,22.152 9.678,21.970 10.423,21.642 C8.929,20.132 8.000,18.023 8.000,15.690 C8.000,15.628 8.001,15.563 8.002,15.500 C6.205,14.419 4.849,12.634 4.285,10.510 ZM9.805,16.296 C9.961,18.033 10.782,19.573 12.000,20.636 C13.218,19.573 14.039,18.033 14.195,16.296 C12.799,16.710 11.200,16.710 9.805,16.296 ZM9.904,14.391 C11.214,14.879 12.786,14.879 14.095,14.391 C13.809,12.940 13.053,11.665 12.000,10.745 C10.947,11.665 10.191,12.940 9.904,14.391 ZM13.576,9.739 C14.581,10.756 15.331,12.044 15.714,13.487 C16.916,12.555 17.784,11.185 18.095,9.606 C17.440,9.362 16.735,9.229 16.000,9.229 C15.140,9.229 14.321,9.411 13.576,9.739 ZM5.904,9.606 C6.216,11.185 7.084,12.555 8.285,13.487 C8.669,12.044 9.418,10.756 10.423,9.739 C9.678,9.411 8.859,9.229 8.000,9.229 C7.265,9.229 6.559,9.362 5.904,9.606 ZM8.000,7.383 C9.456,7.383 10.823,7.789 12.000,8.498 C13.177,7.789 14.544,7.383 16.000,7.383 C16.761,7.383 17.497,7.494 18.195,7.701 C17.900,4.421 15.234,1.845 12.000,1.845 C8.765,1.845 6.099,4.421 5.805,7.701 C6.502,7.494 7.239,7.383 8.000,7.383 Z" class="cls-1"/>
  <path d="M16.000,53.999 C14.544,53.999 13.177,53.592 12.000,52.883 C10.823,53.592 9.456,53.999 8.000,53.999 C3.589,53.999 -0.000,50.271 -0.000,45.690 C-0.000,42.621 1.611,39.936 4.002,38.497 C4.001,38.432 4.000,38.370 4.000,38.305 C4.000,33.725 7.589,29.999 12.000,29.999 C16.411,29.999 20.000,33.725 20.000,38.305 C20.000,38.370 19.999,38.432 19.998,38.497 C22.388,39.936 24.000,42.621 24.000,45.690 C24.000,50.271 20.411,53.999 16.000,53.999 ZM13.576,51.642 C14.321,51.970 15.140,52.152 16.000,52.152 C19.431,52.152 22.222,49.253 22.222,45.690 C22.222,43.572 21.236,41.689 19.714,40.510 C19.151,42.634 17.795,44.419 15.998,45.500 C15.999,45.563 16.000,45.628 16.000,45.690 C16.000,48.023 15.070,50.132 13.576,51.642 ZM4.285,40.510 C2.764,41.689 1.778,43.572 1.778,45.690 C1.778,49.253 4.569,52.152 8.000,52.152 C8.859,52.152 9.678,51.970 10.423,51.642 C8.929,50.132 8.000,48.023 8.000,45.690 C8.000,45.628 8.001,45.563 8.002,45.500 C6.205,44.419 4.849,42.634 4.285,40.510 ZM9.805,46.296 C9.961,48.033 10.782,49.573 12.000,50.636 C13.218,49.573 14.039,48.033 14.195,46.296 C12.799,46.710 11.200,46.710 9.805,46.296 ZM9.904,44.391 C11.214,44.879 12.786,44.879 14.095,44.391 C13.809,42.940 13.053,41.665 12.000,40.745 C10.947,41.665 10.191,42.940 9.904,44.391 ZM13.576,39.739 C14.581,40.756 15.331,42.044 15.714,43.487 C16.916,42.555 17.784,41.185 18.095,39.606 C17.440,39.362 16.735,39.229 16.000,39.229 C15.140,39.229 14.321,39.411 13.576,39.739 ZM5.904,39.606 C6.216,41.185 7.084,42.555 8.285,43.487 C8.669,42.044 9.418,40.756 10.423,39.739 C9.678,39.411 8.859,39.229 8.000,39.229 C7.265,39.229 6.559,39.362 5.904,39.606 ZM8.000,37.383 C9.456,37.383 10.823,37.789 12.000,38.498 C13.177,37.789 14.544,37.383 16.000,37.383 C16.761,37.383 17.497,37.494 18.195,37.701 C17.900,34.421 15.234,31.845 12.000,31.845 C8.765,31.845 6.099,34.421 5.805,37.701 C6.502,37.494 7.239,37.383 8.000,37.383 Z" class="cls-2"/>
</svg>
