<svg xmlns="http://www.w3.org/2000/svg" preserveAspectRatio="xMidYMid" width="24" height="54" viewBox="0 0 24 54"><defs><style>.cls-1 { fill: #ed1c24; } .cls-1, .cls-2 { fill-rule: evenodd; } .cls-2 { fill: gray; }</style></defs><path d="M12 23.999c-6.617 0-12-5.382-12-12 0-6.617 5.383-12 12-12s12 5.383 12 12c0 6.618-5.383 12-12 12zm0-22.001c-5.515 0-10.002 4.486-10.002 10.001 0 5.516 4.487 10.002 10.002 10.002 5.515 0 10.002-4.486 10.002-10.002 0-5.515-4.487-10.001-10.002-10.001zm3.35 9.879c.485.578.725 1.313.725 2.214 0 1.004-.304 1.851-.911 2.542-.607.691-1.455 1.112-2.537 1.268v1.558h-1.21V17.94c-.96-.112-1.739-.47-2.341-1.072-.603-.602-.985-1.45-1.151-2.542l2.174-.235c.089.445.255.828.5 1.151.245.323.519.558.818.7V12.45c-1.087-.309-1.886-.779-2.395-1.411-.509-.632-.764-1.396-.764-2.297 0-.911.289-1.68.862-2.297.578-.622 1.342-.98 2.297-1.073V4.55h1.21v.822c.882.108 1.582.407 2.106.906.519.495.857 1.161.999 1.994l-2.106.275c-.127-.657-.46-1.098-.999-1.333v3.257c1.332.363 2.238.828 2.723 1.406zm-2.723 4.178c1.621-.338 1.773-2.91 0-3.252v3.252zm-1.21-8.87c-1.185 0-1.768 2.307 0 2.885V7.185z" class="cls-1"/><path d="M12 53.999c-6.617 0-12-5.382-12-12 0-6.617 5.383-12 12-12s12 5.383 12 12c0 6.618-5.383 12-12 12zm0-22.001c-5.515 0-10.002 4.486-10.002 10.001 0 5.516 4.487 10.002 10.002 10.002 5.515 0 10.002-4.486 10.002-10.002 0-5.515-4.487-10.001-10.002-10.001zm3.35 9.879c.485.578.725 1.313.725 2.214 0 1.004-.304 1.851-.911 2.542-.607.691-1.455 1.112-2.537 1.268v1.558h-1.21V47.94c-.96-.112-1.739-.47-2.341-1.072-.603-.602-.985-1.45-1.151-2.542l2.174-.235c.089.445.255.828.5 1.151.245.323.519.558.818.7V42.45c-1.087-.309-1.886-.779-2.395-1.411-.509-.632-.764-1.396-.764-2.297 0-.911.289-1.68.862-2.297.578-.622 1.342-.98 2.297-1.073v-.822h1.21v.822c.882.108 1.582.407 2.106.906.519.495.857 1.161.999 1.994l-2.106.275c-.127-.657-.46-1.098-.999-1.333v3.257c1.332.363 2.238.828 2.723 1.406zm-2.723 4.178c1.621-.338 1.773-2.91 0-3.252v3.252zm-1.21-8.87c-1.185 0-1.768 2.307 0 2.885v-2.885z" class="cls-2"/></svg>