<?xml version="1.0" encoding="utf-8"?>
<!-- Generator: Adobe Illustrator 21.0.0, SVG Export Plug-In . SVG Version: 6.00 Build 0)  -->
<svg version="1.1" id="Layer_1" xmlns="http://www.w3.org/2000/svg" xmlns:xlink="http://www.w3.org/1999/xlink" x="0px" y="0px"
	 viewBox="0 0 100 100" style="enable-background:new 0 0 100 100;" xml:space="preserve">
<style type="text/css">
	.st0{fill:#DA251D;}
	.st1{fill:#1F1A17;}
</style>
<g id="Layer_x0020_1">
	<g id="_109672880">
		<polygon id="_109671968" class="st0" points="41,19.1 50,34.7 41,50.4 22.9,50.4 31.9,34.7 50,34.7 59,50.4 77.1,50.4 68,34.7 
			50,34.7 59,19.1 50,3.5 		"/>
		<g>
			<polygon id="_109671920" class="st1" points="24.3,57.5 24.3,66.9 22.1,66.9 22.1,60.2 19.3,65 16.5,60.2 16.5,66.9 14.4,66.9 
				14.4,57.5 17.1,57.5 19.3,61.3 21.5,57.5 			"/>
			<polygon id="_109671872" class="st1" points="26.1,57.5 28.2,57.5 28.2,66.9 26.1,66.9 			"/>
			<polygon id="_109671824" class="st1" points="31.7,59.4 29.1,59.4 29.1,57.5 36.4,57.5 36.4,59.4 33.8,59.4 33.8,66.9 31.7,66.9 
							"/>
			<path id="_109671800" class="st1" d="M37.1,66.8v-1.9c0.4,0.1,1.5,0.3,2.8,0.3c1.1,0,1.6-0.2,1.6-0.7c0-0.7-0.4-0.8-2-1.5
				c-1.5-0.7-2.6-1.2-2.6-2.8c0-1.9,1.2-2.6,3.5-2.6c1.2,0,2.1,0.1,2.6,0.2v1.9c-0.5-0.1-1.5-0.2-2.6-0.2c-1.2,0-1.5,0.2-1.5,0.6
				c0,0.5,0.7,0.8,1.8,1.2c1.6,0.7,2.8,1.3,2.8,3.1c0,1.9-1.1,2.7-3.7,2.7C38.9,67,37.9,66.9,37.1,66.8z"/>
			<path id="_109672280" class="st1" d="M44.8,63.7v-6.3H47v6.2c0,1.1,0.6,1.4,1.7,1.4c1,0,1.7-0.4,1.7-1.4v-6.2h2.1v6.3
				c0,2.3-1.5,3.4-3.8,3.4C46.3,67,44.8,66,44.8,63.7z"/>
			<path id="_109671608" class="st1" d="M58.2,65.1c0.9,0,1.2-0.3,1.2-1.1c0-0.7-0.4-1.1-1.1-1.1h-1.9V65
				C56.3,65.1,58.2,65.1,58.2,65.1z M58,61.3c0.9,0,1.1-0.4,1.1-1.1c0-0.8-0.4-1-1.1-1h-1.7v2C56.3,61.3,58,61.3,58,61.3z
				 M54.2,57.5h4.1c1.9,0,3,0.7,3,2.5c0,1.3-0.8,1.8-1.5,2c0.9,0.3,1.8,0.7,1.8,2.3c0,1.7-1,2.6-3.1,2.6h-4.2
				C54.2,66.9,54.2,57.5,54.2,57.5z"/>
			<polygon id="_109671536" class="st1" points="62.8,57.5 64.9,57.5 64.9,66.9 62.8,66.9 			"/>
			<path id="_109671560" class="st1" d="M66.5,66.8v-1.9c0.4,0.1,1.5,0.3,2.8,0.3c1.1,0,1.6-0.2,1.6-0.7c0-0.7-0.4-0.8-2-1.5
				c-1.5-0.7-2.6-1.2-2.6-2.8c0-1.9,1.2-2.6,3.5-2.6c1.2,0,2.1,0.1,2.6,0.2v1.9c-0.5-0.1-1.5-0.2-2.6-0.2c-1.2,0-1.5,0.2-1.5,0.6
				c0,0.5,0.7,0.8,1.8,1.2c1.6,0.7,2.8,1.3,2.8,3.1c0,1.9-1.1,2.7-3.7,2.7C68.2,67,67.3,66.9,66.5,66.8z"/>
			<polygon id="_109671512" class="st1" points="81.6,57.5 81.6,66.9 79.5,66.9 79.5,63.2 76.2,63.2 76.2,66.9 74.1,66.9 74.1,57.5 
				76.2,57.5 76.2,61.2 79.5,61.2 79.5,57.5 			"/>
			<polygon id="_109671488" class="st1" points="83.3,57.5 85.4,57.5 85.4,66.9 83.3,66.9 			"/>
			<polygon id="_109671752" class="st1" points="34.2,70.1 34.2,79.6 32,79.6 32,73 29.2,77.7 26.4,73 26.4,79.6 24.3,79.6 
				24.3,70.1 27,70.1 29.2,74 31.4,70.1 			"/>
			<path id="_109671464" class="st1" d="M41.6,74.9c0-1.9-0.4-2.9-1.9-2.9c-1.5,0-1.9,1-1.9,2.9s0.4,2.9,1.9,2.9
				S41.6,76.8,41.6,74.9z M35.7,74.9c0-3.4,1.3-4.9,4.1-4.9s4.1,1.5,4.1,4.9c0,3.4-1.3,4.9-4.1,4.9C36.9,79.8,35.7,78.2,35.7,74.9z"
				/>
			<polygon id="_109671416" class="st1" points="46.6,72.2 44.1,72.2 44.1,70.1 51.3,70.1 51.3,72.2 48.7,72.2 48.7,79.6 46.6,79.6 
							"/>
			<path id="_109672448" class="st1" d="M57.5,74.9c0-1.9-0.4-2.9-1.9-2.9c-1.5,0-1.9,1-1.9,2.9s0.4,2.9,1.9,2.9
				C57.3,77.8,57.5,76.8,57.5,74.9z M51.6,74.9c0-3.4,1.3-4.9,4.1-4.9s4.1,1.5,4.1,4.9c0,3.4-1.3,4.9-4.1,4.9S51.6,78.2,51.6,74.9z"
				/>
			<path id="_109672544" class="st1" d="M65,74.4c1,0,1.2-0.4,1.2-1.2c0-0.7-0.3-1.2-1.2-1.2h-1.6v2.4L65,74.4L65,74.4z M61.3,70.1
				h3.8c2,0,3.3,0.8,3.3,3c0,1.5-0.7,2.4-1.9,2.7l2.3,3.7h-2.5l-2-3.4h-1v3.4h-2.1L61.3,70.1L61.3,70.1z"/>
			<path id="_109673072" class="st1" d="M69.6,79.5v-1.9c0.4,0.1,1.5,0.3,2.8,0.3c1.1,0,1.6-0.2,1.6-0.7c0-0.7-0.4-0.8-2-1.5
				c-1.5-0.7-2.6-1.2-2.6-2.8c0-1.9,1.2-2.6,3.5-2.6c1.2,0,2.1,0.1,2.6,0.2v1.9c-0.5-0.1-1.5-0.2-2.6-0.2c-1.2,0-1.5,0.1-1.5,0.6
				s0.7,0.8,1.8,1.2c1.6,0.7,2.8,1.3,2.8,3.1c0,1.9-1.1,2.7-3.7,2.7C71.4,79.8,70.5,79.6,69.6,79.5L69.6,79.5z"/>
			<path id="_109672976" class="st1" d="M1.6,94h2.9c2,0,3.3-1.1,3.3-3.6c0-2.6-1.2-3.6-3.2-3.6h-3C1.6,86.6,1.6,94,1.6,94z
				 M2.9,92.7v-4.9h1.7c1.2,0,1.9,0.7,1.9,2.4c0,1.7-0.6,2.5-1.9,2.5H2.9z M8.9,94h1.3v-3.8c0.4-0.1,1-0.3,1.9-0.3v-1.1
				c-1.1,0-1.6,0.3-2,0.4v-0.4H9C8.9,88.9,8.9,94,8.9,94z M13.8,88.2l0.9-0.9l-0.9-0.9l-0.9,0.9L13.8,88.2z M13.1,94h1.3v-5h-1.3V94
				z M17.4,94h1.2c0.6-0.9,1.9-2.2,1.9-5h-1.3c-0.1,2.1-0.8,3.2-1.2,3.9c-0.4-0.6-1.1-1.8-1.2-3.9h-1.3C15.5,91.8,16.8,93.1,17.4,94
				L17.4,94z M24.1,94.1c1,0,1.5-0.1,1.8-0.2v-1.1c-0.4,0.1-1,0.2-1.8,0.2c-0.9,0-1.5-0.3-1.6-1.1h3.6c0-0.1,0-0.4,0-0.5
				c0-1.6-0.5-2.5-2.3-2.5c-1.8,0-2.6,0.9-2.6,2.6C21.3,93.2,22.2,94.1,24.1,94.1z M22.6,91.1c0.1-0.8,0.4-1.2,1.2-1.2
				c1.1,0,1.1,0.5,1.1,1.2H22.6z M30.6,96.5l2.1-3c0.3-0.4,1.7-2.1,1.7-4.7h-1.2c0,1.9-1,3.4-1.3,3.9c-0.4-0.5-1.3-1.9-1.3-3.9h-1.3
				c0.1,2.6,1.3,4,1.9,4.9l-1.4,2L30.6,96.5L30.6,96.5z M37.8,94.1c1.8,0,2.6-0.9,2.6-2.6c0-1.8-0.9-2.6-2.6-2.6
				c-1.8,0-2.6,0.9-2.6,2.6C35.1,93.2,36.1,94.1,37.8,94.1z M37.8,92.9c-1,0-1.3-0.5-1.3-1.5c0-1.1,0.4-1.5,1.3-1.5
				c1,0,1.3,0.5,1.3,1.5C39.2,92.4,38.8,92.9,37.8,92.9z M46.4,88.9h-1.3v3.8c-0.4,0.1-1,0.3-1.5,0.3c-0.4,0-0.9-0.2-0.9-0.8V89
				h-1.3v3.3c0,1.3,0.8,1.9,1.7,1.9c1.1,0,1.6-0.3,2-0.4v0.4h1.3V88.9z M47.8,94h1.2v-3.8c0.4-0.1,1-0.3,1.9-0.3v-1.1
				c-1.1,0-1.6,0.3-2,0.4v-0.4h-1.2C47.8,88.9,47.8,94,47.8,94z M57.9,86.8l-0.1-0.2H56l-0.1,0.2c-0.7,1.5-2,3.3-2,6.3V94h1.3v-0.7
				c0-0.4,0-0.8,0.1-1.1h3.4c0,0.4,0.1,0.7,0.1,1.1V94h1.3v-0.8C60,90.2,58.8,88.3,57.9,86.8L57.9,86.8z M55.4,91
				c0.4-1.4,1-2.4,1.5-3.4c0.5,1.1,1.1,1.9,1.6,3.4H55.4z M61.3,94h1.3v-3.8c0.3-0.2,1-0.3,1.4-0.3c0.4,0,0.8,0.3,0.8,0.9V94h1.3
				v-3.4c0-0.2,0-0.3,0-0.4c0.3-0.2,1-0.3,1.4-0.3s0.8,0.3,0.8,0.9V94h1.2v-3.4c0-1.3-0.8-1.9-1.7-1.9c-0.7,0-1.7,0.2-2.2,0.5
				c-0.3-0.4-0.8-0.5-1.3-0.5c-0.7,0-1.6,0.3-1.9,0.4v-0.4h-1.2C61.3,88.9,61.3,94,61.3,94z M73.9,88.8c-0.8,0-1.3,0.3-1.7,0.4v-2.7
				h-1.3v2.7V94h1.2v-0.4c0.4,0.2,0.8,0.4,1.7,0.4c1.4,0,2.2-1.1,2.2-2.6C76.2,89.9,75.3,88.8,73.9,88.8z M73.6,92.9
				c-0.6,0-1.1-0.2-1.4-0.3v-2.6c0.4-0.1,0.8-0.3,1.4-0.3c0.9,0,1.2,0.6,1.2,1.5C74.9,92.4,74.5,92.9,73.6,92.9z M77.9,88.2l0.9-0.9
				l-0.9-0.9l-0.9,0.9L77.9,88.2z M77.3,94h1.3v-5h-1.3V94z M82.4,94.1c0.4,0,0.8,0,1.1-0.1v-1.1c-0.2,0-0.5,0.1-0.8,0.1
				c-0.6,0-1-0.1-1-0.7V90h1.6v-1.1h-1.6v-1.4h-1.2v1.4h-0.9V90h0.9v2.5C80.5,93.6,81.1,94.1,82.4,94.1z M85.2,88.2l0.9-0.9
				l-0.9-0.9l-0.9,0.9L85.2,88.2z M84.6,94h1.3v-5h-1.3V94z M89.7,94.1c1.8,0,2.6-0.9,2.6-2.6c0-1.8-0.9-2.6-2.6-2.6
				S87,89.6,87,91.4C87,93.2,87.9,94.1,89.7,94.1z M89.7,92.9c-1,0-1.3-0.5-1.3-1.5c0-1.1,0.4-1.5,1.3-1.5s1.3,0.5,1.3,1.5
				S90.7,92.9,89.7,92.9z M93.4,94h1.3v-3.8c0.4-0.1,1-0.3,1.5-0.3c0.4,0,0.9,0.2,0.9,0.8v3.2h1.3v-3.3c0-1.3-0.8-1.9-1.7-1.9
				c-1.1,0-1.6,0.3-2,0.4v-0.4h-1.1L93.4,94L93.4,94z"/>
		</g>
	</g>
</g>
</svg>
