<svg xmlns="http://www.w3.org/2000/svg" xmlns:xlink="http://www.w3.org/1999/xlink" preserveAspectRatio="xMidYMid" width="92" height="56" viewBox="0 0 92 56">
  <defs>
    <style>
      .cls-1 {
        fill: #fff;
        fill-rule: evenodd;
      }
    </style>
  </defs>
  <path d="M38.007,28.987 C39.947,27.050 43.086,27.050 45.025,28.991 C46.966,30.931 46.970,34.073 45.027,36.013 C43.086,37.957 39.947,37.953 38.005,36.013 C36.065,34.073 36.065,30.931 38.007,28.987 ZM43.355,23.300 C43.355,22.283 42.530,21.461 41.515,21.461 C40.500,21.461 39.676,22.283 39.676,23.300 C39.676,24.318 40.500,25.140 41.515,25.140 C42.530,25.140 43.355,24.318 43.355,23.300 ZM39.676,41.704 C39.676,42.723 40.500,43.548 41.515,43.544 C42.530,43.544 43.355,42.723 43.355,41.704 C43.355,40.688 42.530,39.865 41.515,39.865 C40.500,39.865 39.676,40.688 39.676,41.704 ZM52.553,32.502 C52.553,31.485 51.730,30.662 50.714,30.662 C49.696,30.662 48.873,31.485 48.873,32.502 C48.873,33.518 49.696,34.345 50.714,34.342 C51.730,34.345 52.553,33.518 52.553,32.502 ZM32.319,30.662 C31.300,30.662 30.479,31.485 30.479,32.502 C30.479,33.518 31.300,34.342 32.319,34.342 C33.333,34.342 34.158,33.518 34.158,32.502 C34.156,31.485 33.333,30.662 32.319,30.662 ZM46.718,24.693 C46.000,25.413 46.000,26.579 46.718,27.298 C47.440,28.015 48.601,28.017 49.320,27.298 C50.041,26.579 50.041,25.415 49.320,24.697 C48.603,23.979 47.438,23.977 46.718,24.693 ZM36.312,40.312 C37.030,39.593 37.030,38.426 36.312,37.710 C35.594,36.990 34.429,36.990 33.711,37.710 C32.989,38.429 32.991,39.593 33.711,40.312 C34.429,41.028 35.594,41.028 36.312,40.312 ZM46.718,37.710 C46.000,38.426 45.998,39.593 46.718,40.312 C47.438,41.031 48.599,41.031 49.320,40.312 C50.040,39.593 50.041,38.426 49.320,37.710 C48.601,36.990 47.438,36.990 46.718,37.710 ZM33.711,24.696 C32.989,25.413 32.989,26.579 33.711,27.298 C34.429,28.017 35.594,28.015 36.312,27.298 C37.030,26.579 37.030,25.413 36.312,24.696 C35.594,23.977 34.429,23.977 33.711,24.696 ZM40.905,1.996 L40.905,9.327 C54.017,9.327 64.683,19.998 64.683,33.112 L72.011,33.112 C72.011,15.958 58.056,1.996 40.905,1.996 ZM28.552,38.268 C27.764,36.504 27.317,34.558 27.317,32.504 C27.317,27.391 30.040,22.916 34.103,20.412 C34.191,17.790 35.176,15.301 36.935,13.311 C37.732,12.411 38.650,11.662 39.652,11.066 C28.653,12.015 19.989,21.260 19.989,32.504 C19.989,32.617 20.004,32.724 20.006,32.835 C20.586,34.077 21.409,35.197 22.488,36.103 C24.206,37.540 26.341,38.265 28.552,38.268 ZM44.839,11.253 L44.842,11.328 C42.310,11.484 39.989,12.620 38.309,14.522 C37.078,15.915 36.310,17.603 36.043,19.399 C37.730,18.691 39.579,18.299 41.515,18.299 C47.181,18.299 52.068,21.646 54.344,26.458 C56.874,26.534 59.291,27.438 61.263,29.087 C61.901,29.621 62.459,30.218 62.957,30.856 C62.198,20.865 54.598,12.777 44.839,11.253 ZM60.087,30.494 C58.645,29.288 56.917,28.552 55.088,28.345 C55.493,29.662 55.711,31.056 55.711,32.504 C55.711,36.296 54.235,39.865 51.553,42.545 C50.526,43.573 49.372,44.416 48.125,45.076 C48.193,47.337 47.585,49.572 46.332,51.517 C45.773,52.385 45.106,53.155 44.358,53.827 C49.027,53.212 53.346,51.118 56.734,47.728 C60.284,44.178 62.441,39.598 62.932,34.664 C62.374,33.060 61.425,31.614 60.087,30.494 ZM46.253,45.882 C44.748,46.415 43.159,46.705 41.515,46.705 C36.483,46.705 32.064,44.063 29.541,40.101 C29.215,40.129 28.889,40.146 28.563,40.146 C25.916,40.146 23.371,39.226 21.313,37.506 C20.990,37.234 20.687,36.942 20.397,36.641 C22.288,46.306 30.662,53.661 40.788,54.003 C42.415,53.253 43.803,52.068 44.796,50.527 C45.703,49.114 46.170,47.517 46.253,45.882 Z" class="cls-1"/>
</svg>
