<svg xmlns="http://www.w3.org/2000/svg" xmlns:xlink="http://www.w3.org/1999/xlink" preserveAspectRatio="xMidYMid" width="92" height="56" viewBox="0 0 92 56">
  <defs>
    <style>
      .cls-1 {
        fill: #fff;
        fill-rule: evenodd;
      }
    </style>
  </defs>
  <path d="M24.190,22.994 L6.317,22.994 L6.317,32.855 L4.178,32.855 L4.178,38.666 L6.317,38.666 L6.317,42.115 L18.886,42.115 C19.614,45.460 22.830,47.991 26.672,47.991 C30.513,47.991 33.713,45.460 34.451,42.115 L57.639,42.115 C58.369,45.460 61.587,47.991 65.420,47.991 C69.263,47.991 72.468,45.460 73.201,42.115 L84.163,42.115 L84.163,38.666 L87.006,38.666 L87.006,32.855 L86.991,32.855 L84.145,32.855 L84.145,22.994 L77.796,22.994 L69.024,8.993 L32.953,8.993 M26.665,45.086 C24.017,45.086 21.864,43.100 21.864,40.663 C21.864,38.215 24.025,36.226 26.665,36.226 C29.306,36.226 31.454,38.220 31.454,40.663 C31.454,43.100 29.306,45.086 26.665,45.086 ZM65.411,45.086 C62.767,45.086 60.614,43.100 60.614,40.663 C60.614,38.215 62.770,36.226 65.411,36.226 C68.049,36.226 70.202,38.220 70.202,40.663 C70.202,43.100 68.055,45.086 65.411,45.086 ZM81.004,39.202 L73.189,39.202 C72.462,35.848 69.251,33.315 65.411,33.315 C61.571,33.315 58.363,35.848 57.633,39.202 L34.436,39.202 C33.710,35.848 30.496,33.315 26.659,33.315 C22.815,33.315 19.605,35.848 18.874,39.202 L9.445,39.202 L9.445,25.899 L25.997,25.899 L34.759,11.898 L67.215,11.898 L75.980,25.899 L81.004,25.899 L81.004,39.202 L81.004,39.202 ZM66.982,17.006 L72.336,25.556 L66.982,25.556 L66.982,17.006 ZM49.696,14.644 L63.841,14.644 L63.841,25.556 L49.696,25.556 L49.696,14.644 ZM36.477,14.644 L46.555,14.644 L46.555,25.556 L29.639,25.556 L36.477,14.644 Z" class="cls-1"/>
</svg>
