<svg xmlns="http://www.w3.org/2000/svg" xmlns:xlink="http://www.w3.org/1999/xlink" preserveAspectRatio="xMidYMid" width="92" height="56" viewBox="0 0 92 56">
  <defs>
    <style>
      .cls-1 {
        fill: #fff;
        fill-rule: evenodd;
      }
    </style>
  </defs>
  <path d="M87.026,43.352 L87.026,47.007 L76.174,47.007 C75.511,50.415 72.373,52.998 68.604,52.998 C64.835,52.998 61.697,50.412 61.034,47.007 L37.756,47.007 C37.092,50.415 33.957,52.998 30.187,52.998 C26.415,52.998 23.280,50.412 22.616,47.007 L10.163,47.007 L10.163,43.352 L7.895,43.352 L7.895,38.020 L10.163,38.020 L10.163,27.834 L27.824,27.834 L36.515,13.574 L72.104,13.574 L80.796,27.834 L87.026,27.834 L87.026,38.020 L90.000,38.020 L90.000,43.352 L87.026,43.352 ZM68.604,50.334 C71.314,50.334 73.512,48.245 73.512,45.680 C73.512,43.110 71.314,41.016 68.604,41.016 C65.894,41.016 63.696,43.104 63.696,45.680 C63.696,48.245 65.894,50.334 68.604,50.334 ZM30.187,50.334 C32.890,50.334 35.091,48.245 35.094,45.680 C35.094,43.110 32.893,41.016 30.187,41.016 C27.481,41.016 25.281,43.104 25.281,45.680 C25.281,48.245 27.481,50.334 30.187,50.334 ZM84.220,30.503 L79.176,30.503 L70.481,16.239 L38.137,16.239 L29.445,30.503 L12.973,30.503 L12.973,44.342 L22.619,44.342 C23.280,40.930 26.418,38.343 30.190,38.343 C33.960,38.343 37.095,40.935 37.759,44.342 L61.034,44.342 C61.699,40.930 64.829,38.343 68.607,38.343 C72.376,38.343 75.511,40.935 76.174,44.342 L84.220,44.342 L84.220,30.503 ZM70.006,21.324 L75.466,30.287 L70.006,30.287 L70.006,21.324 ZM52.866,19.176 L67.202,19.176 L67.202,30.287 L52.866,30.287 L52.866,19.176 ZM39.914,19.176 L50.062,19.176 L50.062,30.287 L33.145,30.287 L39.914,19.176 ZM21.197,10.222 L17.334,13.890 L22.093,18.416 C22.960,18.364 23.845,18.634 24.509,19.265 C25.721,20.414 25.721,22.295 24.509,23.446 C23.291,24.598 21.322,24.598 20.110,23.446 C19.448,22.818 19.158,21.977 19.219,21.153 L14.461,16.628 L9.705,21.153 C9.757,21.969 9.472,22.815 8.811,23.444 C7.596,24.601 5.628,24.601 4.415,23.444 C3.199,22.292 3.199,20.417 4.415,19.263 C5.076,18.629 5.961,18.361 6.827,18.419 L11.587,13.890 L7.724,10.224 C6.465,10.498 5.097,10.187 4.120,9.255 C3.047,8.241 2.753,6.776 3.202,5.496 L5.018,7.223 C5.665,7.833 6.727,7.813 7.394,7.183 C8.064,6.548 8.086,5.537 7.441,4.922 L5.624,3.194 C6.970,2.761 8.510,3.042 9.580,4.065 C10.557,4.991 10.894,6.292 10.601,7.488 L14.464,11.160 L18.327,7.488 C18.034,6.297 18.366,4.991 19.345,4.065 C20.414,3.042 21.955,2.763 23.297,3.194 L21.479,4.919 C20.837,5.526 20.859,6.540 21.529,7.174 C22.195,7.810 23.256,7.833 23.900,7.221 L25.719,5.493 C26.164,6.763 25.873,8.233 24.799,9.246 C23.822,10.173 22.453,10.498 21.197,10.222 ZM21.882,22.853 L23.466,22.448 L23.889,20.952 L22.729,19.849 L21.145,20.252 L20.727,21.759 L21.882,22.853 ZM7.770,20.254 L6.190,19.852 L5.033,20.949 L5.457,22.451 L7.040,22.853 L8.197,21.756 L7.770,20.254 Z" class="cls-1"/>
</svg>
